<svg width="16" height="16" viewBox="0 0 16 16" xmlns="http://www.w3.org/2000/svg">
    <path d="M8 0c1.876 0 3.64.748 4.967 2.107a7.215 7.215 0 0 1 2.05 4.823c.578.263.983.855.983 1.543v1.896c0 .686-.402 1.276-.976 1.54v.92c0 1.311-1.042 2.377-2.323 2.377h-1.153a1.165 1.165 0 0 1-1.09.794H9.27c-.31 0-.6-.124-.819-.348a1.188 1.188 0 0 1-.339-.837c0-.462.264-.884.674-1.076a1.12 1.12 0 0 1 .484-.11h1.189c.31 0 .6.124.819.349.124.127.213.28.27.445H12.7c.859 0 1.558-.715 1.558-1.594v-.78a1.08 1.08 0 0 1-.977-1.083V7.877c0-.565.424-1.026.962-1.081a6.427 6.427 0 0 0-1.818-4.135A6.148 6.148 0 0 0 8 .783c-3.322 0-6.046 2.663-6.245 6.012.539.055.963.517.963 1.082v3.09c0 .602-.479 1.092-1.068 1.092C.74 12.059 0 11.3 0 10.37V8.474c0-.689.405-1.28.983-1.544C1.116 3.086 4.212 0 8 0zm2.459 14.414h-1.19a.373.373 0 0 0-.162.036.403.403 0 0 0-.115.649.385.385 0 0 0 .278.118h1.189a.397.397 0 0 0 .392-.402.402.402 0 0 0-.115-.283.384.384 0 0 0-.277-.118zm.019-10.61c.432 0 .84.173 1.146.487.307.313.476.73.476 1.172v3.382c0 .915-.728 1.66-1.622 1.66H8.331l-1.424 1.45a.77.77 0 0 1-.859.182.812.812 0 0 1-.496-.756v-.876h-.03c-.894 0-1.622-.745-1.622-1.66V5.463c0-.915.728-1.66 1.622-1.66zm0 .783H5.522a.867.867 0 0 0-.856.876v3.382c0 .483.384.876.856.876h.413c.212 0 .383.176.383.392v1.268c0 .01 0 .022.018.03.014.006.02 0 .026-.007l1.542-1.569a.379.379 0 0 1 .27-.114h2.304a.867.867 0 0 0 .857-.876V5.463a.88.88 0 0 0-.252-.619.841.841 0 0 0-.605-.257zM1.65 7.568a.896.896 0 0 0-.885.906v1.896c0 .499.397.905.885.905a.306.306 0 0 0 .302-.31V7.878c0-.17-.135-.309-.302-.309zm12.7 0a.306.306 0 0 0-.302.31v3.088c0 .17.135.31.302.31a.896.896 0 0 0 .885-.906V8.474c0-.5-.397-.906-.885-.906zm-8.21-.929c.313 0 .566.26.566.578a.572.572 0 0 1-.565.578.572.572 0 0 1-.565-.578c0-.318.254-.578.565-.578zm1.86 0c.312 0 .565.26.565.578A.572.572 0 0 1 8 7.795a.572.572 0 0 1-.565-.578c0-.318.253-.578.565-.578zm1.859 0c.311 0 .565.26.565.578a.572.572 0 0 1-.565.578.572.572 0 0 1-.565-.578c0-.318.253-.578.565-.578z" fill="#5C6066" fill-rule="nonzero"/>
</svg>
