<svg width="16" height="16" viewBox="0 0 16 16" xmlns="http://www.w3.org/2000/svg">
    <path d="M7.892 0a.686.686 0 0 1 0 1.371C4.041 1.371 1.353 4.096 1.353 8c0 3.904 2.688 6.629 6.54 6.629a.686.686 0 0 1 0 1.371C3.246 16 0 12.709 0 8s3.247-8 7.892-8zm5.603 5.23 2.309 2.34a.697.697 0 0 1 0 .97l-2.31 2.34a.664.664 0 0 1-.477.201.664.664 0 0 1-.478-.201.697.697 0 0 1 0-.97l1.153-1.17H6.088a.686.686 0 0 1 0-1.37l7.605-.001-1.154-1.17a.696.696 0 0 1 0-.97.674.674 0 0 1 .956 0z" fill="#5C6066" fill-rule="nonzero"/>
</svg>
