<svg width="16" height="15" viewBox="0 0 16 15" xmlns="http://www.w3.org/2000/svg">
    <path d="M8.5 0a7.5 7.5 0 1 1 0 14.999 7.142 7.142 0 0 1-5.907-2.96.5.5 0 1 1 .815-.58A6.152 6.152 0 0 0 8.5 14a6.5 6.5 0 1 0-6.414-7.542l.31-.312a.5.5 0 0 1 .707.707l-1.25 1.25a.499.499 0 0 1-.352.147h-.05a.5.5 0 0 1-.365-.222l-1-1.5a.5.5 0 1 1 .83-.56l.19.283A7.5 7.5 0 0 1 8.5 0zm-.25 2.75a.5.5 0 0 1 .5.5V7.5l2.778 2.102a.5.5 0 1 1-.6.8l-3-2.25a.517.517 0 0 1-.178-.402v-4.5a.5.5 0 0 1 .5-.5z" fill="#5C6066" fill-rule="nonzero"/>
</svg>
