<svg width="12" height="17" viewBox="0 0 12 17" xmlns="http://www.w3.org/2000/svg">
    <path d="M11.514 0c.268 0 .486.223.486.498v16.004a.492.492 0 0 1-.486.498H.486A.492.492 0 0 1 0 16.502V2.996c0-.132.051-.259.143-.352L2.583.146A.48.48 0 0 1 2.927 0zm-.487.996H3.128L.973 3.203v12.8h10.054V.997zm-1.46 12.318c.27 0 .487.223.487.498a.492.492 0 0 1-.486.499H6.973a.492.492 0 0 1-.487-.498c0-.276.218-.499.487-.499zm0-2.49c.27 0 .487.223.487.498a.492.492 0 0 1-.486.498H2.432a.492.492 0 0 1-.486-.498c0-.275.218-.498.486-.498zm-4.54-2.49c.269 0 .487.223.487.498a.492.492 0 0 1-.487.498H2.432a.492.492 0 0 1-.486-.498c0-.275.218-.498.486-.498z" fill="#5C6066" fill-rule="nonzero"/>
</svg>
