<svg width="16" height="16" viewBox="0 0 16 16" xmlns="http://www.w3.org/2000/svg">
    <path d="M5.714 0c-2.203 0-4 1.797-4 4 0 1.377.703 2.6 1.768 3.321C1.444 8.196 0 10.22 0 12.571h1.143A4.563 4.563 0 0 1 5.714 8c.786 0 1.518.205 2.161.554a4.575 4.575 0 0 0-1.018 2.875A4.58 4.58 0 0 0 11.43 16 4.58 4.58 0 0 0 16 11.429a4.58 4.58 0 0 0-4.571-4.572c-.998 0-1.927.328-2.679.875a5.786 5.786 0 0 0-.804-.41A4.014 4.014 0 0 0 9.714 4c0-2.203-1.797-4-4-4zm0 1.143A2.848 2.848 0 0 1 8.571 4a2.848 2.848 0 0 1-2.857 2.857A2.848 2.848 0 0 1 2.857 4a2.848 2.848 0 0 1 2.857-2.857zM11.43 8a3.42 3.42 0 0 1 3.428 3.429 3.42 3.42 0 0 1-3.428 3.428A3.42 3.42 0 0 1 8 11.43 3.42 3.42 0 0 1 11.429 8zm-.572 1.143v1.714H9.143V12h1.714v1.714H12V12h1.714v-1.143H12V9.143h-1.143z" fill="#5C6066" fill-rule="nonzero"/>
</svg>
