<svg width="16" height="14" viewBox="0 0 16 14" xmlns="http://www.w3.org/2000/svg">
    <path d="m8 2.34-.4.396a.554.554 0 0 0 .8 0L8 2.34zm.51-.532.4.396-.4-.396zm-1.02 0 .4-.396-.4.396zM1.64 7.68l-.414.38.414-.38zm4.262 4.797-.415.38.415-.38zm4.196 0 .415.38-.415-.38zM14.36 7.68l.414.38-.414-.38zm-.108-5.872-.4.396.4-.396zm-12.505 0 .4.396-.4-.396zm9.974.567a.563.563 0 0 0-.558.568c0 .313.25.568.558.568V2.375zm.93 2.082c0 .313.25.567.558.567a.563.563 0 0 0 .558-.567h-1.116zM8.4 2.736l.51-.532-.8-.792-.51.531.8.793zm-1.31-.532.51.532.8-.793-.51-.531-.8.792zM1.227 8.061l4.261 4.796.829-.76L2.054 7.3l-.828.76zm9.287 4.796 4.261-4.796-.828-.761-4.262 4.796.829.761zm3.34-10.653c1.337 1.395 1.379 3.648.093 5.096l.828.76c1.68-1.89 1.627-4.824-.122-6.648l-.8.792zm.8-.792a4.495 4.495 0 0 0-6.543 0l.8.792a3.392 3.392 0 0 1 4.943 0l.8-.792zm-12.506.792a3.392 3.392 0 0 1 4.944 0l.799-.792a4.495 4.495 0 0 0-6.542 0l.8.792zm3.34 10.653a3.334 3.334 0 0 0 5.026 0l-.829-.76a2.23 2.23 0 0 1-3.368 0l-.829.76zM1.347 1.412C-.4 3.236-.453 6.169 1.227 8.06l.828-.761C.768 5.852.81 3.599 2.147 2.204l-.8-.792zM11.722 3.51c.514 0 .93.423.93.946h1.116c0-1.15-.916-2.082-2.046-2.082v1.136z" fill="#5C6066" fill-rule="nonzero"/>
</svg>
