<svg xmlns="http://www.w3.org/2000/svg" version="1.1" xmlns:xlink="http://www.w3.org/1999/xlink" xmlns:svgjs="http://svgjs.com/svgjs" width="512" height="512" x="0" y="0" viewBox="0 0 459 459.648" style="enable-background:new 0 0 512 512" xml:space="preserve" class=""><g><path d="M416.324 293.824c0 26.508-21.492 48-48 48H54.95l63.2-63.199L95.522 256 5.012 346.512c-6.246 6.25-6.246 16.375 0 22.625l90.511 90.511 22.625-22.625-63.199-63.199h313.375c44.16-.054 79.946-35.84 80-80v-64h-32zM32.324 165.824c0-26.512 21.489-48 48-48H393.7l-63.199 63.2 22.625 22.624 90.512-90.511c6.246-6.25 6.246-16.375 0-22.625L353.125 0 330.5 22.625l63.2 63.2H80.323c-44.16.05-79.949 35.84-80 80v64h32zm0 0" fill="#ff6431" data-original="#000000" class=""></path></g></svg>