<svg width="16" height="10" viewBox="0 0 16 10" xmlns="http://www.w3.org/2000/svg">
    <path d="M11.636 2.25c0-1.243.977-2.25 2.182-2.25S16 1.007 16 2.25s-.977 2.25-2.182 2.25-2.182-1.007-2.182-2.25zM.727 3h8.728a.739.739 0 0 0 .727-.75.739.739 0 0 0-.727-.75H.727A.739.739 0 0 0 0 2.25c0 .414.326.75.727.75zm4.364 2.25c-.922.003-1.744.603-2.051 1.5H.727A.739.739 0 0 0 0 7.5c0 .414.326.75.727.75H3.04c.37 1.08 1.467 1.7 2.55 1.442 1.08-.258 1.802-1.313 1.674-2.45-.127-1.138-1.063-1.995-2.173-1.992zm10.182 1.5H9.455a.739.739 0 0 0-.728.75c0 .414.326.75.728.75h5.818A.739.739 0 0 0 16 7.5a.739.739 0 0 0-.727-.75z" fill="#28303F" fill-rule="nonzero"/>
</svg>
