<svg xmlns="http://www.w3.org/2000/svg" version="1.1" xmlns:xlink="http://www.w3.org/1999/xlink" xmlns:svgjs="http://svgjs.com/svgjs" width="512" height="512" x="0" y="0" viewBox="0 0 512 512" style="enable-background:new 0 0 512 512" xml:space="preserve"><g><path d="M359.511 37.984c-38.907 0-75.282 14.653-103.511 41.478-28.229-26.825-64.605-41.478-103.511-41.478C68.406 37.984 0 108.033 0 194.135c0 49.918 42.543 112.126 126.449 184.895 61.346 53.204 123.555 93.023 124.176 93.419a9.996 9.996 0 0 0 10.751-.001c.621-.396 62.83-40.215 124.176-93.419C469.457 306.26 512 244.052 512 194.135c0-86.102-68.406-156.151-152.489-156.151zm13.109 325.787c-49.885 43.284-100.379 77.567-116.62 88.301-16.216-10.715-66.578-44.903-116.448-88.153C61.34 296.089 20 237.378 20 194.135 20 119.06 79.435 57.984 152.489 57.984c36.726 0 70.877 15.094 96.161 42.501a10 10 0 0 0 14.7 0c25.285-27.406 59.435-42.5 96.161-42.5C432.565 57.984 492 119.06 492 194.135c0 43.209-41.281 101.868-119.38 169.636z" fill="#ffffff" data-original="#000000"></path><path d="m347.379 93.307-.376.065c-5.438.966-9.063 6.157-8.097 11.595.861 4.846 5.078 8.252 9.834 8.252.581 0 1.17-.051 1.76-.156l.199-.034c5.446-.917 9.118-6.075 8.201-11.521-.917-5.448-6.08-9.115-11.521-8.201zM439.056 131.382c-12.278-16.867-29.718-29.43-49.106-35.375-5.281-1.621-10.873 1.349-12.492 6.629-1.619 5.28 1.349 10.873 6.629 12.492 31.959 9.8 54.279 41.078 54.279 76.063 0 5.523 4.477 10 10 10s10-4.477 9.999-10.001c0-21.774-6.677-42.455-19.309-59.808z" fill="#ffffff" data-original="#000000"></path></g></svg>