<?xml version="1.0" encoding="UTF-8"?>
<svg width="218px" height="19px" viewBox="0 0 218 19" version="1.1" xmlns="http://www.w3.org/2000/svg" xmlns:xlink="http://www.w3.org/1999/xlink">
    <title>5D631734-22CE-42C5-A136-6E9F8DD65ECA</title>
    <g id="Web-App" stroke="none" stroke-width="1" fill="none" fill-rule="evenodd">
        <g id="Hotel-Booking-Web---Login" transform="translate(-51.000000, -36.000000)" fill-rule="nonzero">
            <g id="24-hours-check-in" transform="translate(51.636719, 36.023438)">
                <path d="M3.59765625,6.8671875 L0,6.1640625 C0.2265625,4.4609375 0.958984375,3.05664062 2.19726562,1.95117188 C3.43554688,0.845703125 4.90234375,0.29296875 6.59765625,0.29296875 C8.37890625,0.29296875 9.8671875,0.826171875 11.0625,1.89257812 C12.2578125,2.95898438 12.8554688,4.3046875 12.8554688,5.9296875 C12.8554688,7.0234375 12.6113281,7.98632812 12.1230469,8.81835938 C11.6347656,9.65039062 10.8632812,10.5273438 9.80859375,11.4492188 L5.77734375,14.9296875 L12.4804688,14.9296875 L12.4804688,17.9765625 L0.0703125,17.9765625 L0.0703125,15.6914062 L7.0078125,9.66796875 C7.6875,9.05859375 8.20898438,8.484375 8.57226562,7.9453125 C8.93554688,7.40625 9.1171875,6.8046875 9.1171875,6.140625 C9.1171875,5.3828125 8.875,4.7578125 8.390625,4.265625 C7.90625,3.7734375 7.29296875,3.52734375 6.55078125,3.52734375 C5.81640625,3.52734375 5.16992188,3.84375 4.61132812,4.4765625 C4.05273438,5.109375 3.71484375,5.90625 3.59765625,6.8671875 Z" id="Path" fill="#FF6431"></path>
                <path d="M18.9492188,11.1328125 L22.9101562,11.1328125 L22.9101562,4.1953125 L18.9492188,11.1328125 Z M22.9101562,14.1796875 L14.8945312,14.1796875 L14.8945312,11.9765625 L21.421875,0.890625 L26.9414062,0.890625 L26.9414062,11.1328125 L28.9570312,11.1328125 L28.9570312,14.1796875 L26.9414062,14.1796875 L26.9414062,17.9765625 L22.9101562,17.9765625 L22.9101562,14.1796875 Z" id="Shape" fill="#FF6431"></path>
                <path d="M38.9765625,0.1640625 L42.5742188,0.1640625 L42.5742188,7.078125 C42.9804688,6.4921875 43.5214844,6.03320312 44.1972656,5.70117188 C44.8730469,5.36914062 45.5898438,5.203125 46.3476562,5.203125 C47.7539062,5.203125 48.8847656,5.6640625 49.7402344,6.5859375 C50.5957031,7.5078125 51.0234375,8.703125 51.0234375,10.171875 L51.0234375,17.9765625 L47.4257812,17.9765625 L47.4257812,10.921875 C47.4257812,10.171875 47.21875,9.5625 46.8046875,9.09375 C46.390625,8.625 45.828125,8.38671875 45.1171875,8.37890625 C44.4140625,8.37890625 43.8144531,8.63476562 43.3183594,9.14648438 C42.8222656,9.65820312 42.5742188,10.296875 42.5742188,11.0625 L42.5742188,17.9765625 L38.9765625,17.9765625 L38.9765625,0.1640625 Z" id="Path" fill="#FF6431"></path>
                <path d="M60.140625,5.203125 C62.171875,5.203125 63.8183594,5.81640625 65.0800781,7.04296875 C66.3417969,8.26953125 66.9726562,9.8671875 66.9726562,11.8359375 C66.9726562,13.796875 66.3398438,15.390625 65.0742188,16.6171875 C63.8085938,17.84375 62.1640625,18.4570312 60.140625,18.4570312 C58.125,18.4570312 56.484375,17.8417969 55.21875,16.6113281 C53.953125,15.3808594 53.3203125,13.7890625 53.3203125,11.8359375 C53.3203125,9.8671875 53.953125,8.26953125 55.21875,7.04296875 C56.484375,5.81640625 58.125,5.203125 60.140625,5.203125 Z M60.140625,15.2929688 C61.0859375,15.2929688 61.8574219,14.96875 62.4550781,14.3203125 C63.0527344,13.671875 63.3515625,12.84375 63.3515625,11.8359375 C63.3515625,10.828125 63.0527344,10 62.4550781,9.3515625 C61.8574219,8.703125 61.0859375,8.37890625 60.140625,8.37890625 C59.203125,8.37890625 58.4355469,8.703125 57.8378906,9.3515625 C57.2402344,10 56.9414062,10.828125 56.9414062,11.8359375 C56.9414062,12.84375 57.2402344,13.671875 57.8378906,14.3203125 C58.4355469,14.96875 59.203125,15.2929688 60.140625,15.2929688 Z" id="Shape" fill="#FF6431"></path>
                <path d="M81.328125,17.9765625 L77.8242188,17.9765625 L77.8242188,16.3007812 C77.3867188,16.9804688 76.8242188,17.5097656 76.1367188,17.8886719 C75.4492188,18.2675781 74.7070312,18.4570312 73.9101562,18.4570312 C72.5351562,18.4570312 71.4199219,17.9804688 70.5644531,17.0273438 C69.7089844,16.0742188 69.28125,14.8554688 69.28125,13.3710938 L69.28125,5.68359375 L72.8789062,5.68359375 L72.8789062,12.75 C72.8789062,13.5078125 73.0839844,14.1210938 73.4941406,14.5898438 C73.9042969,15.0585938 74.4570312,15.2929688 75.1523438,15.2929688 C75.8710938,15.2929688 76.4804688,15.0371094 76.9804688,14.5253906 C77.4804688,14.0136719 77.7304688,13.3710938 77.7304688,12.5976562 L77.7304688,5.68359375 L81.328125,5.68359375 L81.328125,17.9765625 Z" id="Path" fill="#FF6431"></path>
                <path d="M84.4335938,5.68359375 L87.890625,5.68359375 L87.890625,7.25390625 C88.25,6.63671875 88.7226562,6.14648438 89.3085938,5.78320312 C89.8945312,5.41992188 90.5195312,5.23828125 91.1835938,5.23828125 C91.6367188,5.23828125 92.125,5.33984375 92.6484375,5.54296875 L92.6484375,8.7421875 C91.9921875,8.453125 91.3203125,8.30859375 90.6328125,8.30859375 C89.859375,8.30859375 89.2324219,8.59960938 88.7519531,9.18164062 C88.2714844,9.76367188 88.03125,10.5195312 88.03125,11.4492188 L88.03125,17.9765625 L84.4335938,17.9765625 L84.4335938,5.68359375 Z" id="Path" fill="#FF6431"></path>
                <path d="M105.785156,14.0859375 C105.785156,15.375 105.25,16.4335938 104.179687,17.2617188 C103.109375,18.0898438 101.71875,18.5039062 100.007812,18.5039062 C98.3515625,18.5039062 96.9863281,18.0683594 95.9121094,17.1972656 C94.8378906,16.3261719 94.3046875,15.21875 94.3124154,13.875 L97.359375,13.875 C97.359375,14.484375 97.6132812,14.984375 98.1210937,15.375 C98.6289062,15.765625 99.2734375,15.9609375 100.054687,15.9609375 C100.710937,15.9609375 101.253906,15.8242188 101.683594,15.5507812 C102.113281,15.2773438 102.328125,14.9335938 102.328125,14.5195312 C102.328125,14.1914062 102.183594,13.921875 101.894531,13.7109375 C101.605469,13.5 101.269531,13.3515625 100.886719,13.265625 C100.503906,13.1796875 100.027344,13.109375 99.4570312,13.0546875 C98.9960937,13 98.6152344,12.9472656 98.3144531,12.8964844 C98.0136719,12.8457031 97.6679687,12.7753906 97.2773437,12.6855469 C96.8867187,12.5957031 96.5703125,12.4941406 96.328125,12.3808594 C96.0859375,12.2675781 95.8320312,12.1171875 95.5664062,11.9296875 C95.3007812,11.7421875 95.09375,11.5292969 94.9453125,11.2910156 C94.796875,11.0527344 94.6757812,10.765625 94.5820312,10.4296875 C94.4882812,10.09375 94.4414062,9.71484375 94.4414062,9.29296875 C94.4414062,8.09765625 94.9433594,7.109375 95.9472656,6.328125 C96.9511719,5.546875 98.2070312,5.15625 99.7148437,5.15625 C101.363281,5.15625 102.71875,5.55664062 103.78125,6.35742188 C104.84375,7.15820312 105.375,8.17578125 105.375,9.41015625 L102.210937,9.41015625 C102.210937,8.91015625 101.972656,8.5 101.496094,8.1796875 C101.019531,7.859375 100.417969,7.69921875 99.6914062,7.69921875 C99.1367187,7.69921875 98.6640625,7.83007812 98.2734375,8.09179688 C97.8828125,8.35351562 97.6835937,8.6875 97.6757812,9.09375 C97.6757812,9.2890625 97.734375,9.45898438 97.8515625,9.60351562 C97.96875,9.74804688 98.1523437,9.86914062 98.4023437,9.96679688 C98.6523437,10.0644531 98.90625,10.140625 99.1640625,10.1953125 C99.421875,10.25 99.75,10.3085938 100.148437,10.3710938 C100.492187,10.4179688 100.777344,10.4589844 101.003906,10.4941406 C101.230469,10.5292969 101.515625,10.5800781 101.859375,10.6464844 C102.203125,10.7128906 102.492187,10.7792969 102.726562,10.8457031 C102.960937,10.9121094 103.226562,11 103.523437,11.109375 C103.820312,11.21875 104.066406,11.3359375 104.261719,11.4609375 C104.457031,11.5859375 104.660156,11.7382812 104.871094,11.9179688 C105.082031,12.0976562 105.248047,12.2910156 105.369141,12.4980469 C105.490234,12.7050781 105.589844,12.9433594 105.667969,13.2128906 C105.746094,13.4824219 105.785156,13.7734375 105.785156,14.0859375 Z" id="Path" fill="#FF6431"></path>
                <path d="M121.804688,5.203125 C123.414062,5.203125 124.816406,5.66210938 126.011719,6.58007812 C127.207031,7.49804688 127.902344,8.6640625 128.097656,10.078125 L124.734375,10.5117188 C124.578125,9.84765625 124.226562,9.30273438 123.679688,8.87695312 C123.132812,8.45117188 122.515625,8.23828125 121.828125,8.23828125 C120.945312,8.23828125 120.205078,8.578125 119.607422,9.2578125 C119.009766,9.9375 118.710938,10.796875 118.710938,11.8359375 C118.710938,12.875 119.007812,13.734375 119.601562,14.4140625 C120.195312,15.09375 120.9375,15.4335938 121.828125,15.4335938 C122.53125,15.4335938 123.152344,15.2207031 123.691406,14.7949219 C124.230469,14.3691406 124.585938,13.8203125 124.757812,13.1484375 L128.121094,13.5820312 C127.894531,14.9960938 127.181641,16.1621094 125.982422,17.0800781 C124.783203,17.9980469 123.390625,18.4570312 121.804688,18.4570312 C120.53125,18.4570312 119.384766,18.1738281 118.365234,17.6074219 C117.345703,17.0410156 116.548828,16.2539062 115.974609,15.2460938 C115.400391,14.2382812 115.113281,13.1015625 115.113281,11.8359375 C115.113281,9.9140625 115.742188,8.328125 117,7.078125 C118.257812,5.828125 119.859375,5.203125 121.804688,5.203125 Z" id="Path" fill="#28303F"></path>
                <path d="M130.628906,0.1640625 L134.226562,0.1640625 L134.226562,7.078125 C134.632812,6.4921875 135.173828,6.03320312 135.849609,5.70117188 C136.525391,5.36914062 137.242188,5.203125 138,5.203125 C139.40625,5.203125 140.537109,5.6640625 141.392578,6.5859375 C142.248047,7.5078125 142.675781,8.703125 142.675781,10.171875 L142.675781,17.9765625 L139.078125,17.9765625 L139.078125,10.921875 C139.078125,10.171875 138.871094,9.5625 138.457031,9.09375 C138.042969,8.625 137.480469,8.38671875 136.769531,8.37890625 C136.066406,8.37890625 135.466797,8.63476562 134.970703,9.14648438 C134.474609,9.65820312 134.226562,10.296875 134.226562,11.0625 L134.226562,17.9765625 L130.628906,17.9765625 L130.628906,0.1640625 Z" id="Path" fill="#28303F"></path>
                <path d="M148.6875,10.6757812 L154.746094,10.6757812 C154.636719,9.88671875 154.300781,9.23828125 153.738281,8.73046875 C153.175781,8.22265625 152.492188,7.96875 151.6875,7.96875 C150.90625,7.96875 150.251953,8.21289062 149.724609,8.70117188 C149.197266,9.18945312 148.851562,9.84765625 148.6875,10.6757812 Z M144.996094,11.7421875 C144.996094,9.8203125 145.628906,8.25 146.894531,7.03125 C148.160156,5.8125 149.785156,5.203125 151.769531,5.203125 C153.738281,5.203125 155.333984,5.81445312 156.556641,7.03710938 C157.779297,8.25976562 158.390625,9.84375 158.390625,11.7890625 C158.390625,12.328125 158.375,12.6875 158.34375,12.8671875 L148.710938,12.84375 C148.867188,13.7109375 149.226562,14.4023438 149.789062,14.9179688 C150.351562,15.4335938 151.035156,15.6914062 151.839844,15.6914062 C152.503906,15.6914062 153.095703,15.5214844 153.615234,15.1816406 C154.134766,14.8417969 154.492188,14.3984375 154.6875,13.8515625 L157.933594,14.3085938 C157.636719,15.5117188 156.90625,16.5039062 155.742188,17.2851562 C154.578125,18.0664062 153.246094,18.4570312 151.746094,18.4570312 C149.761719,18.4570312 148.140625,17.8320312 146.882812,16.5820312 C145.625,15.3320312 144.996094,13.71875 144.996094,11.7421875 Z" id="Shape" fill="#28303F"></path>
                <path d="M167.085938,5.203125 C168.695312,5.203125 170.097656,5.66210938 171.292969,6.58007812 C172.488281,7.49804688 173.183594,8.6640625 173.378906,10.078125 L170.015625,10.5117188 C169.859375,9.84765625 169.507812,9.30273438 168.960938,8.87695312 C168.414062,8.45117188 167.796875,8.23828125 167.109375,8.23828125 C166.226562,8.23828125 165.486328,8.578125 164.888672,9.2578125 C164.291016,9.9375 163.992188,10.796875 163.992188,11.8359375 C163.992188,12.875 164.289062,13.734375 164.882812,14.4140625 C165.476562,15.09375 166.21875,15.4335938 167.109375,15.4335938 C167.8125,15.4335938 168.433594,15.2207031 168.972656,14.7949219 C169.511719,14.3691406 169.867188,13.8203125 170.039062,13.1484375 L173.402344,13.5820312 C173.175781,14.9960938 172.462891,16.1621094 171.263672,17.0800781 C170.064453,17.9980469 168.671875,18.4570312 167.085938,18.4570312 C165.8125,18.4570312 164.666016,18.1738281 163.646484,17.6074219 C162.626953,17.0410156 161.830078,16.2539062 161.255859,15.2460938 C160.681641,14.2382812 160.394531,13.1015625 160.394531,11.8359375 C160.394531,9.9140625 161.023438,8.328125 162.28125,7.078125 C163.539062,5.828125 165.140625,5.203125 167.085938,5.203125 Z" id="Path" fill="#28303F"></path>
                <polygon id="Path" fill="#28303F" points="175.910156 17.9765625 175.910156 0.1640625 179.507812 0.1640625 179.507812 10.21875 183.667969 5.68359375 188.027344 5.68359375 182.707031 11.4492188 188.203125 17.9765625 183.808594 17.9765625 179.507812 12.6914062 179.507812 17.9765625"></polygon>
                <path d="M197.671875,5.68359375 L201.269531,5.68359375 L201.269531,17.9765625 L197.671875,17.9765625 L197.671875,5.68359375 Z M200.964844,3.48046875 C200.574219,3.86328125 200.074219,4.0546875 199.464844,4.0546875 C198.855469,4.0546875 198.355469,3.86328125 197.964844,3.48046875 C197.574219,3.09765625 197.378906,2.609375 197.378906,2.015625 C197.378906,1.4296875 197.574219,0.947265625 197.964844,0.568359375 C198.355469,0.189453125 198.855469,0 199.464844,0 C200.074219,0 200.574219,0.189453125 200.964844,0.568359375 C201.355469,0.947265625 201.550781,1.4296875 201.550781,2.015625 C201.550781,2.609375 201.355469,3.09765625 200.964844,3.48046875 Z" id="Shape" fill="#28303F"></path>
                <path d="M204.667969,5.68359375 L208.171875,5.68359375 L208.171875,7.34765625 C208.609375,6.68359375 209.171875,6.16015625 209.859375,5.77734375 C210.546875,5.39453125 211.289062,5.203125 212.085938,5.203125 C213.460938,5.203125 214.576172,5.68164062 215.431641,6.63867188 C216.287109,7.59570312 216.714844,8.81640625 216.714844,10.3007812 L216.714844,17.9765625 L213.117188,17.9765625 L213.117188,10.921875 C213.117188,10.1640625 212.912109,9.55078125 212.501953,9.08203125 C212.091797,8.61328125 211.535156,8.37890625 210.832031,8.37890625 C210.113281,8.37890625 209.505859,8.6328125 209.009766,9.140625 C208.513672,9.6484375 208.265625,10.2890625 208.265625,11.0625 L208.265625,17.9765625 L204.667969,17.9765625 L204.667969,5.68359375 Z" id="Path" fill="#28303F"></path>
            </g>
        </g>
    </g>
</svg>