<svg width="100" height="100" viewBox="0 0 100 100" xmlns="http://www.w3.org/2000/svg">
    <g fill-rule="nonzero" fill="none">
        <rect fill="#E57E25" width="87.109" height="59.69" rx="4.943"/>
        <path d="M85.105 58.635a5.104 5.104 0 0 0 2.004-4.058V5.113A5.113 5.113 0 0 0 81.996 0H32.521L85 58.596l.105.04z" fill="#F29C1F"/>
        <path d="M54.588 0H5.113A5.113 5.113 0 0 0 0 5.113v49.464a5.102 5.102 0 0 0 1.895 3.971l.214.048L54.59 0z" fill="#F29C1F"/>
        <path d="M81.996 0H5.113A5.113 5.113 0 0 0 0 5.113V7.08l36.898 25.425a11.732 11.732 0 0 0 13.314 0L87.109 7.079V5.113A5.113 5.113 0 0 0 81.996 0z" fill="#F0C419"/>
        <path d="M22.68 100a1.563 1.563 0 0 1-1.006-2.758L43.273 79.29a1.562 1.562 0 1 1 2.013 2.39l-21.6 17.953a1.557 1.557 0 0 1-1.005.367z" fill="#FF5364"/>
        <path d="M41.001 96.6a1.563 1.563 0 0 1-1.03-2.739l5.317-4.857a1.562 1.562 0 1 1 2.06 2.35l-5.317 4.858c-.284.25-.65.388-1.03.387z" fill="#35ACEF"/>
        <path fill="#285680" d="m46.796 65.693 9.858 23.612 18.01-27.016 25.318-24.124z"/>
        <path fill="#7ED0FC" d="M99.982 37.991 48.022 68.3l-15.288-3.966z"/>
        <path fill="#35ACEF" d="m81.683 58.035-25.029 31.27 2.954-17.91z"/>
        <path d="M99.982 38.165c.014-.044.033-.078 0-.045L59.608 71.395l25.01 6.808 15.364-40.038z" fill="#7ED0FC"/>
    </g>
</svg>
