<svg width="16" height="13" viewBox="0 0 16 13" xmlns="http://www.w3.org/2000/svg">
    <path d="M2.441.163a.559.559 0 0 0-.79.788l.79-.788zM13.56 12.837a.559.559 0 0 0 .79-.788l-.79.788zM9.86 8.577a.556.556 0 1 0-.745-.831l.745.83zM6.75 5.385a.559.559 0 0 0-.832-.743l.833.743zM1.206 8.095l-.404.384.404-.384zm13.59-3.19.404-.384-.404.384zm0 3.19.404.384-.404-.384zm-13.59-3.19-.404-.384.404.384zm12.09 3.855a.556.556 0 1 0 .733.84l-.733-.84zM5.908 1.075a.557.557 0 1 0 .334 1.063l-.334-1.063zm-1.7 2.034a.557.557 0 1 0-.601-.939l.6.94zm7.923 7.883a.557.557 0 1 0-.575-.955l.575.955zM1.651.952 13.56 12.836l.79-.788L2.44.163l-.79.788zM5.21 6.5A2.788 2.788 0 0 0 8 9.286V8.17A1.673 1.673 0 0 1 6.326 6.5H5.209zM8 9.286c.714 0 1.367-.269 1.86-.71l-.744-.83A1.668 1.668 0 0 1 8 8.171v1.115zM5.92 4.643A2.775 2.775 0 0 0 5.21 6.5h1.116c0-.428.16-.818.426-1.114l-.832-.743zM.8 8.479c1.468 1.54 4.11 3.778 7.2 3.778v-1.114c-2.59 0-4.946-1.916-6.39-3.432l-.81.768zM15.2 4.52C13.731 2.981 11.09.743 8 .743v1.114c2.59 0 4.946 1.916 6.39 3.432l.81-.768zm0 3.958a2.845 2.845 0 0 0 0-3.958l-.81.768c.658.691.658 1.73 0 2.422l.81.768zM1.61 7.71a1.732 1.732 0 0 1 0-2.422L.8 4.521a2.845 2.845 0 0 0 0 3.958l.81-.768zm12.418 1.89c.44-.384.834-.768 1.171-1.122l-.809-.768a16.13 16.13 0 0 1-1.095 1.049l.733.84zM8 .742c-.728 0-1.429.124-2.092.332l.334 1.063A5.877 5.877 0 0 1 8 1.858V.742zM3.607 2.17C2.47 2.894 1.51 3.776.8 4.521l.809.768c.671-.705 1.562-1.52 2.597-2.18l-.6-.939zM8 12.257c1.524 0 2.932-.545 4.131-1.265l-.575-.955c-1.09.655-2.3 1.106-3.556 1.106v1.114z" fill="#5C6066" fill-rule="nonzero"/>
</svg>
