<svg width="350" height="43" viewBox="0 0 350 43" xmlns="http://www.w3.org/2000/svg" xmlns:xlink="http://www.w3.org/1999/xlink">
    <defs>
        <linearGradient x1="50%" y1="89.157%" x2="50%" y2="-4.556%" id="0hvcxucjfd">
            <stop stop-color="#FF4631" offset="0%"/>
            <stop stop-color="#FF6431" offset="100%"/>
        </linearGradient>
        <linearGradient x1="50.021%" y1="50.014%" x2="50.021%" y2="50.114%" id="cbvm6iml0g">
            <stop stop-color="#F23F3F" offset="0%"/>
            <stop stop-color="#B50E0E" offset="100%"/>
        </linearGradient>
        <linearGradient x1="49.979%" y1="50.014%" x2="49.979%" y2="50.114%" id="oneyvq8dfi">
            <stop stop-color="#F23F3F" offset="0%"/>
            <stop stop-color="#B50E0E" offset="100%"/>
        </linearGradient>
        <linearGradient x1="50%" y1="8.101%" x2="50%" y2="95.337%" id="8eadhqa01k">
            <stop stop-color="#F23F3F" offset="0%"/>
            <stop stop-color="#B50E0E" offset="100%"/>
        </linearGradient>
        <path id="qegbpdv9za" d="M0 0h26.537v4.797H0z"/>
        <path d="M18.855 0C7.683 0 0 6.885 0 6.885 31.627-10.648 35.446 43 58.164 43H291.835C314.553 43 318.372-10.648 350 6.885c0 0-7.683-6.885-18.855-6.885H18.855z" id="acjc31cw3c"/>
        <path d="M.433.422z" id="71t041iubf"/>
        <path d="M321.855.49a19.505 19.505 0 0 0-5.236 2.294c-3.213 2.076-5.882 4.845-8.238 7.77-4.748 5.856-8.477 12.385-13.07 18.182-2.274 2.893-4.784 5.644-7.812 7.572-1.498.984-3.167 1.635-4.875 1.994-.854.208-1.734.222-2.607.27l-2.846-.025-22.81-.237c-30.414-.311-60.828-.357-91.243-.396-30.414.043-60.828.087-91.241.403l-22.81.235-2.846.025c-.874-.048-1.754-.063-2.608-.272-1.709-.359-3.378-1.01-4.877-1.994-3.03-1.928-5.537-4.681-7.813-7.571-4.592-5.8-8.322-12.328-13.068-18.185-2.357-2.925-5.025-5.694-8.237-7.77A19.519 19.519 0 0 0 4.382.49C2.947.116 1.471-.012 0 0c21.204.09 26.777 39.635 46.283 39.635H279.954C299.46 39.635 305.034.088 326.24 0L326.03 0c-1.401 0-2.807.133-4.175.49" id="oyttqn51qj"/>
    </defs>
    <g fill="none" fill-rule="evenodd">
        <path d="M0 6.884h26.537s-5.326-5.186-13.056-4.773C5.75 2.524 0 6.884 0 6.884" fill="#820000"/>
        <g transform="translate(323.462 2.087)">
            <mask id="czg6tljt5b" fill="#fff">
                <use xlink:href="#qegbpdv9za"/>
            </mask>
            <path d="M26.537 4.797H0S5.326-.39 13.056.023c7.73.414 13.481 4.774 13.481 4.774" fill="#820000" mask="url(#czg6tljt5b)"/>
        </g>
        <g>
            <mask id="nkgt0ho3ee" fill="#fff">
                <use xlink:href="#acjc31cw3c"/>
            </mask>
            <path d="M18.855 0C7.683 0 0 6.885 0 6.885 31.627-10.648 35.446 43 58.164 43H291.835C314.553 43 318.372-10.648 350 6.885c0 0-7.683-6.885-18.855-6.885H18.855z" fill="url(#0hvcxucjfd)" mask="url(#nkgt0ho3ee)"/>
        </g>
        <g transform="translate(10.15 2.987)">
            <mask id="dwbaxfveyh" fill="#fff">
                <use xlink:href="#71t041iubf"/>
            </mask>
            <path d="M.433.422z" fill="url(#cbvm6iml0g)" mask="url(#dwbaxfveyh)"/>
        </g>
        <g transform="translate(11.881 3.365)">
            <mask id="pc1v7xwznl" fill="#fff">
                <use xlink:href="#oyttqn51qj"/>
            </mask>
            <path d="M321.855.49a19.505 19.505 0 0 0-5.236 2.294c-3.213 2.076-5.882 4.845-8.238 7.77-4.748 5.856-8.477 12.385-13.07 18.182-2.274 2.893-4.784 5.644-7.812 7.572-1.498.984-3.167 1.635-4.875 1.994-.854.208-1.734.222-2.607.27l-2.846-.025-22.81-.237c-30.414-.311-60.828-.357-91.243-.396-30.414.043-60.828.087-91.241.403l-22.81.235-2.846.025c-.874-.048-1.754-.063-2.608-.272-1.709-.359-3.378-1.01-4.877-1.994-3.03-1.928-5.537-4.681-7.813-7.571-4.592-5.8-8.322-12.328-13.068-18.185-2.357-2.925-5.025-5.694-8.237-7.77A19.519 19.519 0 0 0 4.382.49C2.947.116 1.471-.012 0 0c21.204.09 26.777 39.635 46.283 39.635H279.954C299.46 39.635 305.034.088 326.24 0L326.03 0c-1.401 0-2.807.133-4.175.49" fill="url(#8eadhqa01k)" mask="url(#pc1v7xwznl)"/>
        </g>
    </g>
</svg>
