<svg width="12" height="13" viewBox="0 0 12 13" xmlns="http://www.w3.org/2000/svg">
    <path d="M11.077 5.828c0 1.333-.79 2.911-1.881 4.18-.54.627-1.135 1.157-1.708 1.527-.582.376-1.098.558-1.488.558V13c.648 0 1.344-.287 1.995-.707.66-.426 1.32-1.019 1.906-1.7C11.06 9.245 12 7.463 12 5.828h-.923zM6 12.093c-.39 0-.906-.182-1.488-.558-.573-.37-1.168-.9-1.708-1.527C1.714 8.739.924 7.16.924 5.828H0c0 1.636.94 3.417 2.1 4.765.585.681 1.245 1.274 1.905 1.7.65.42 1.347.707 1.995.707v-.907zM.923 5.828C.923 3.116 3.191.907 6 .907V0C2.692 0 0 2.604 0 5.828h.923zM6 .907c2.81 0 5.077 2.209 5.077 4.921H12C12 2.604 9.308 0 6 0v.907zm1.385 4.988c0 .752-.62 1.36-1.385 1.36v.908c1.275 0 2.308-1.015 2.308-2.268h-.923zM6 7.255c-.765 0-1.385-.608-1.385-1.36h-.923c0 1.253 1.033 2.268 2.308 2.268v-.907zm-1.385-1.36c0-.751.62-1.36 1.385-1.36v-.907c-1.275 0-2.308 1.015-2.308 2.267h.923zM6 4.535c.765 0 1.385.609 1.385 1.36h.923c0-1.252-1.033-2.267-2.308-2.267v.907z" fill="#FF6431" fill-rule="nonzero"/>
</svg>
