<svg width="16" height="16" viewBox="0 0 16 16" xmlns="http://www.w3.org/2000/svg">
    <path d="M14.83 15.8a.686.686 0 1 0 .97-.97l-.97.97zm-.494-2.433a.686.686 0 1 0-.97.97l.97-.97zM1.371 7.634a6.263 6.263 0 0 1 6.263-6.263V0A7.634 7.634 0 0 0 0 7.634h1.371zm6.263-6.263a6.263 6.263 0 0 1 6.263 6.263h1.372A7.634 7.634 0 0 0 7.634 0v1.371zm6.263 6.263a6.263 6.263 0 0 1-6.263 6.263v1.372a7.634 7.634 0 0 0 7.635-7.635h-1.372zm-6.263 6.263a6.263 6.263 0 0 1-6.263-6.263H0a7.634 7.634 0 0 0 7.634 7.635v-1.372zm8.165.932-1.463-1.462-.97.97 1.463 1.462.97-.97z" fill="#5C6066" fill-rule="nonzero"/>
</svg>
