<svg xmlns="http://www.w3.org/2000/svg" version="1.1" xmlns:xlink="http://www.w3.org/1999/xlink" xmlns:svgjs="http://svgjs.com/svgjs" width="512" height="512" x="0" y="0" viewBox="0 0 25 25" style="enable-background:new 0 0 512 512" xml:space="preserve" class=""><g><path d="M21.5 5H19V2.5a.5.5 0 0 0-1 0V5H7V2.5a.5.5 0 0 0-1 0V5H3.5A1.5 1.5 0 0 0 2 6.5v15A1.5 1.5 0 0 0 3.5 23h18a1.5 1.5 0 0 0 1.5-1.5v-15A1.5 1.5 0 0 0 21.5 5zm.5 16.5a.5.5 0 0 1-.5.5h-18a.5.5 0 0 1-.5-.5V10h19zM3 9V6.5a.5.5 0 0 1 .5-.5h18a.5.5 0 0 1 .5.5V9z" data-name="Layer 29" fill="#28303f" data-original="#000000" class=""></path></g></svg>