<svg xmlns="http://www.w3.org/2000/svg" version="1.1" xmlns:xlink="http://www.w3.org/1999/xlink" xmlns:svgjs="http://svgjs.com/svgjs" width="512" height="512" x="0" y="0" viewBox="0 0 25 25" style="enable-background:new 0 0 512 512" xml:space="preserve" class=""><g><g data-name="Layer 29"><path d="M23 9V6.5A1.5 1.5 0 0 0 21.5 5h-18A1.5 1.5 0 0 0 2 6.5V9zM2 10v11.5A1.5 1.5 0 0 0 3.5 23h18a1.5 1.5 0 0 0 1.5-1.5V10z" fill="#ff6431" data-original="#000000"></path><path d="M6.5 6a.5.5 0 0 1-.5-.5v-3a.5.5 0 0 1 1 0v3a.5.5 0 0 1-.5.5zM18.5 6a.5.5 0 0 1-.5-.5v-3a.5.5 0 0 1 1 0v3a.5.5 0 0 1-.5.5z" fill="#ff6431" data-original="#000000"></path></g></g></svg>