<svg xmlns="http://www.w3.org/2000/svg" version="1.1" xmlns:xlink="http://www.w3.org/1999/xlink" xmlns:svgjs="http://svgjs.com/svgjs" width="512" height="512" x="0" y="0" viewBox="0 0 506.525 506.525" style="enable-background:new 0 0 512 512" xml:space="preserve" class=""><g><path d="M464.143 67.14c-56.52-56.51-146.47-58.51-202.99-2l-7.46 7.46s-6.92-6.92-7.22-7.21c-27.27-26.81-63.3-41.56-101.6-41.56-38.71 0-75.11 15.08-102.49 42.45-56.51 56.52-56.51 148.47 0 204.99l211.31 211.51 210.45-210.65c56.51-56.52 56.51-148.48 0-204.99zm-49.217 96.024c0-24.734-20.123-44.857-44.857-44.857v-30c41.276 0 74.857 33.581 74.857 74.857z" fill="#ff6431" data-original="#000000" class=""></path></g></svg>