<svg xmlns="http://www.w3.org/2000/svg" version="1.1" xmlns:xlink="http://www.w3.org/1999/xlink" xmlns:svgjs="http://svgjs.com/svgjs" width="512" height="512" x="0" y="0" viewBox="0 0 506.53 506.53" style="enable-background:new 0 0 512 512" xml:space="preserve" class=""><g><path d="m253.903 482.741-10.829-10.805-200.692-200.71c-56.511-56.515-56.509-148.47.004-204.982 27.377-27.377 63.777-42.455 102.494-42.455s75.117 15.077 102.494 42.455l6.32 6.319 5.462-5.462c56.516-56.515 148.473-56.516 204.988 0 56.513 56.513 56.515 148.468.005 204.983L263.77 472.48zM144.88 53.789c-30.704 0-59.57 11.957-81.281 33.667-44.816 44.817-44.818 117.74-.003 162.558l190.099 190.114 189.24-189.256c44.814-44.819 44.813-117.742-.003-162.559-44.818-44.818-117.744-44.817-162.563 0l-26.675 26.676-27.533-27.533c-21.711-21.711-50.577-33.667-81.281-33.667z" fill="#28303f" data-original="#000000" class=""></path><path d="M444.928 163.128h-30c0-24.734-20.123-44.857-44.857-44.857v-30c41.276 0 74.857 33.581 74.857 74.857z" fill="#28303f" data-original="#000000" class=""></path></g></svg>