<svg xmlns="http://www.w3.org/2000/svg" version="1.1" xmlns:xlink="http://www.w3.org/1999/xlink" xmlns:svgjs="http://svgjs.com/svgjs" width="512" height="512" x="0" y="0" viewBox="0 0 512 512" style="enable-background:new 0 0 512 512" xml:space="preserve" class=""><g><path fill-rule="evenodd" d="M360.722 149.088a7 7 0 0 1-7 7H158.279a7 7 0 1 1 0-14h195.442a7 7 0 0 1 7.001 7zm138.175 128.158c-1.438 19.53-16.38 34.259-34.754 34.259H47.857c-18.375 0-33.316-14.729-34.756-34.26-5.484-74.224-5.461-126.782.073-160.679 2.235-13.702 11.857-22.908 23.944-22.908H474.88c12.085 0 21.708 9.206 23.944 22.908 5.535 33.897 5.559 86.455.073 160.68zm-63.147-19.241c0-4.825-3.925-8.75-8.75-8.75H85c-4.825 0-8.75 3.925-8.75 8.75v39.5h359.5zm49.259-139.183c-.841-5.15-3.998-11.164-10.128-11.164H37.119c-6.131 0-9.287 6.014-10.128 11.163-5.354 32.797-5.33 84.28.073 157.394.908 12.337 9.653 21.29 20.793 21.29H62.25v-39.5c0-12.544 10.206-22.75 22.75-22.75h342c12.544 0 22.75 10.206 22.75 22.75v39.5h14.394c11.139 0 19.884-8.953 20.792-21.289 5.403-73.114 5.427-124.598.073-157.394zM256 343.505a7 7 0 0 0-7 7v60.837a7 7 0 1 0 14 0v-60.837a7 7 0 0 0-7-7zm-60.126.006a7 7 0 0 0-6.707 7.281c.869 21.188-5.152 41.687-16.521 56.241a6.999 6.999 0 0 0 5.512 11.308 6.987 6.987 0 0 0 5.521-2.691c13.381-17.13 20.479-40.979 19.476-65.433-.158-3.862-3.425-6.859-7.281-6.706zm-62.653.004c-3.855-.21-7.154 2.766-7.354 6.626-1.105 21.208-9.037 41.291-21.761 55.101a7 7 0 0 0 5.145 11.744c1.888 0 3.77-.759 5.149-2.257 14.899-16.169 24.175-39.444 25.446-63.858a7 7 0 0 0-6.625-7.356zm189.613 7.277a7 7 0 0 0-13.988-.574c-1.004 24.452 6.096 48.302 19.477 65.433a6.986 6.986 0 0 0 5.521 2.691 6.999 6.999 0 0 0 5.512-11.308c-11.37-14.556-17.391-35.055-16.522-56.242zm63.301-.651c-.201-3.861-3.497-6.835-7.354-6.626a7 7 0 0 0-6.626 7.354c1.272 24.414 10.548 47.689 25.446 63.858a6.98 6.98 0 0 0 5.149 2.257 6.969 6.969 0 0 0 4.741-1.853 7 7 0 0 0 .404-9.891c-12.722-13.807-20.654-33.891-21.76-55.099zm39.587-210.554c-5.232 0-9.5 4.268-9.5 9.5 0 5.233 4.268 9.5 9.5 9.5 5.233 0 9.5-4.268 9.5-9.5s-4.267-9.5-9.5-9.5z" clip-rule="evenodd" fill="#5c6066" data-original="#000000" class=""></path></g></svg>