<svg width="17" height="18" viewBox="0 0 17 18" xmlns="http://www.w3.org/2000/svg">
    <path d="M12.586.628A.622.622 0 0 0 11.971 0a.622.622 0 0 0-.615.628h1.23zm-1.23 2.512c0 .346.276.627.615.627.34 0 .615-.28.615-.627h-1.23zM6.026.628A.622.622 0 0 0 5.411 0a.622.622 0 0 0-.615.628h1.23zM4.796 3.14c0 .346.275.627.615.627.34 0 .615-.28.615-.627h-1.23zm-.205-.628h8.2V1.256h-8.2v1.256zm8.2 14.232h-8.2V18h8.2v-1.256zm-10.865-2.72V6.487H.696v7.535h1.23zm0-7.536V5.233H.696v1.255h1.23zm13.53-1.255v1.255h1.23V5.233h-1.23zm0 1.255v7.535h1.23V6.488h-1.23zM4.592 16.744c-1.472 0-2.665-1.218-2.665-2.72H.696C.696 16.22 2.44 18 4.59 18v-1.256zm8.2 1.256c2.152 0 3.896-1.78 3.896-3.977h-1.23c0 1.503-1.194 2.721-2.666 2.721V18zm0-15.488c1.472 0 2.666 1.218 2.666 2.72h1.23c0-2.196-1.744-3.976-3.896-3.976v1.256zm-8.2-1.256C2.44 1.256.696 3.036.696 5.233h1.23c0-1.503 1.193-2.721 2.665-2.721V1.256zm-3.28 5.86h14.76V5.86H1.312v1.256zM11.356.628V3.14h1.23V.628h-1.23zm-6.56 0V3.14h1.23V.628h-1.23z" fill="#5C6066" fill-rule="nonzero"/>
</svg>
