<svg width="18" height="18" viewBox="0 0 18 18" xmlns="http://www.w3.org/2000/svg">
    <g fill="#24292E" fill-rule="nonzero" stroke="#FFF" stroke-width=".2">
        <path d="M9 1C4.578 1 1 4.578 1 9c0 4.422 3.578 8 8 8 4.422 0 8-3.578 8-8 0-4.422-3.578-8-8-8zm0 14.75A6.746 6.746 0 0 1 2.25 9c0-3.73 3.019-6.75 6.75-6.75 3.73 0 6.75 3.019 6.75 6.75 0 3.73-3.019 6.75-6.75 6.75z"/>
        <path d="M11.812 10.904 9.908 9l1.904-1.904a.642.642 0 0 0-.908-.908L9 8.092 7.096 6.188a.642.642 0 1 0-.908.908L8.092 9l-1.904 1.904a.642.642 0 1 0 .908.908L9 9.908l1.904 1.904a.642.642 0 1 0 .908-.908z"/>
    </g>
</svg>
