<svg width="50" height="45" viewBox="0 0 50 45" xmlns="http://www.w3.org/2000/svg">
    <g fill-rule="nonzero" fill="none">
        <path d="m24.814 0 .02.1.029.145.011.058c.126-.059.248-.136.381-.168.112-.026.238-.001.357.006.224.013.449.037.674.043.335.008.671-.01 1.005.011.29.02.579.076.868.123.04.006.072.056.065.05.135-.01.229-.03.319-.019.113.015.22.068.333.087.301.053.628.042.898.161.193.085.373.061.553.107.21.054.414.141.62.213.02.008.04.012.06.017.233.05.47.086.698.153.176.052.338.147.51.213.15.059.306.103.457.154.127.042.3.05.367.138.096.127.212.078.313.117.207.079.41.169.612.256.089.038.174.084.264.12.264.104.548.17.741.402.137.165-.002.542-.211.618-.107.039-.198.122-.332.208.315.127.501-.067.716-.12.172-.042.287-.36.524-.105.011.012.075.001.093-.018.138-.153.267-.133.414-.006.052.045.142.048.236.077 0 .08-.003.169.002.256.002.03.02.065.044.082.015.012.068.005.076-.01.106-.173.202-.137.317-.003.033.038.119.031.187.047l.05.214c.424.007.708.293 1.011.527.287.22.686.327.803.751.029-.016.057-.027.08-.045.019-.016.03-.04.041-.054.259.212.512.41.752.622.3.266.592.54.882.817.286.272.574.543.845.83.25.264.472.549.71.823.168.194.345.38.505.58.214.268.413.55.629.817.098.123.196.337.39.089.013-.016.056-.004.083-.012.249-.077.494-.195.748-.224.331-.038.678-.135 1.002.063.107.064.23.103.35.136.37.102.64.339.882.616.124.14.208.291.266.477.081.257.251.484.36.735.07.164.095.347.148.52.076.246.16.491.238.737.047.155.096.309.135.465.053.217.085.44.149.653.057.188.145.366.218.55.008.018.011.04.017.06.087.281.18.561.258.845.055.2.079.407.138.605.057.19.146.369.211.557.029.084.04.176.048.265a4.2 4.2 0 0 1 .014.395c0 .053-.015.14-.044.15-.246.087-.009.134.028.196l-.07-.002c-.01.126-.078.32-.023.365.109.089.287.095.461.142.075.191.183.419.252.657.04.138.016.294.02.442.003.113-.025.224.115.303.19.107.133.319.16.504.04.221.087.44.103.663.005.079-.059.17-.11.243-.102.149-.19.353-.336.416-.18.077-.215.169-.198.366l-.169-.192c-.124.191-.104.441.037.547-.7.88-1.156.898-1.652.968 0 .16.007.326-.003.491a1.717 1.717 0 0 1-.083.449c.028.086.075.17.08.258.012.176.012.354-.005.529-.035.38-.023.779-.147 1.13-.1.28-.054.548-.11.815-.019.094-.042.187-.067.28l-.154.558c-.01.04-.01.084-.019.125-.046.256-.052.529-.15.764-.12.292-.15.6-.247.892-.1.305-.235.598-.345.9-.063.172-.104.354-.162.529-.037.11-.08.22-.13.327-.114.25-.235.496-.35.744-.095.202-.18.408-.282.607-.056.11-.137.209-.218.33l-.209.6-.309-.304-.073.05c.042.074.094.145.125.223.022.057.045.144.018.185-.095.138-.21.263-.334.41l.203.063-.676 1.108c-.04-.037-.088-.075-.164-.14-.025.496-.2.883-.642 1.11.21.11-.016.2-.05.26-.096.164-.241.3-.364.448-.366.443-.705.906-1.14 1.293-.254.225-.44.523-.684.762-.304.297-.635.567-.956.847-.227.199-.441.421-.693.584-.253.164-.452.388-.7.554-.381.257-.76.515-1.145.766-.381.25-.762.5-1.154.733-.203.12-.436.189-.646.297-.212.107-.406.25-.62.35-.239.111-.496.182-.737.286-.237.101-.462.232-.7.332-.166.07-.349.103-.52.164-.194.068-.382.152-.576.223a5.198 5.198 0 0 1-.44.146l-.02.005c-.025.012-.047.028-.071.038-.175.071-.367.099-.548.156-.208.065-.412.144-.617.217-.02.006-.038.018-.058.022-.263.05-.526.094-.788.145-.187.037-.37.096-.559.122a5.23 5.23 0 0 0-.131.036c-.02.006-.04.015-.061.017-.053.007-.107.012-.16.017l-.004.027c-.037.009-.072.022-.11.027-.389.048-.791.052-1.161.16-.26.077-.51.085-.767.095-.064.003-.13-.033-.196-.053l-.533.139c-.168-.192-.344.173-.555-.022l-.001-.01c-.048.004-.095.002-.142.004l-.043.085a6.15 6.15 0 0 0-.167-.082c-.098 0-.197.005-.296.003-.066.022-.131.046-.2.059-.074.015-.155.006-.233.001-.679-.043-1.358-.082-2.037-.136a.559.559 0 0 1-.217-.086c-.007-.004-.02-.004-.027-.007a.475.475 0 0 0-.154-.06l-.12-.012c-.027.04-.08.055-.161.046a1.035 1.035 0 0 1-.12-.022l-.236-.063c-.027-.006-.053-.017-.081-.022-.343-.049-.69-.081-1.028-.15-.064-.014-.126-.036-.19-.054l-.101-.015c-.3-.064-.596-.16-.904-.252a1.987 1.987 0 0 1-.272-.064.473.473 0 0 1-.093-.043c-.092.01-.184-.019-.286-.095-.02-.015-.048-.02-.072-.032a1.046 1.046 0 0 0-.223-.078c-.042-.01-.084-.019-.125-.03-.19-.055-.388-.087-.57-.16-.112-.045-.298-.059-.25-.27.006-.027-.027-.063-.069-.156l-.07.268c-.224-.076-.442-.145-.656-.226-.052-.018-.087-.083-.139-.105-.225-.093-.456-.174-.682-.266a4.284 4.284 0 0 1-.406-.189c-.278-.148-.555-.3-.827-.46a.204.204 0 0 1-.085-.14c-.014-.155-.01-.31-.016-.465-.003-.05-.02-.1-.032-.15-.024 0-.047.005-.07.007l-.033.682c-.308-.275-.471-.568-.503-.932-.028-.003-.062-.015-.079-.004a.828.828 0 0 1-.873.032 8.222 8.222 0 0 1-1.137-.774c-.26-.21-.56-.37-.832-.567-.143-.102-.265-.233-.396-.352-.227-.206-.457-.41-.682-.62-.246-.227-.494-.451-.731-.689a21.75 21.75 0 0 1-.81-.853c-.075-.083-.104-.207-.167-.339-.186.031-.257-.17-.376-.305-.187-.215-.416-.405-.55-.649-.184-.335-.434-.613-.665-.909-.082-.105-.29-.119-.397-.028-.026.022-.049.058-.077.062-.337.06-.674.118-1.013.16-.082.01-.172-.05-.222-.065l-.239.036-.27.041.118-.498a32.72 32.72 0 0 1-.102-.118l.042-.071c.083.038.165.079.251.113.051.02.107.035.161.037.306.01.612.005.917.022a.889.889 0 0 1 .302.091c.198.09.174-.118.248-.184.033-.03.012-.117.015-.18-.194-.111-.37-.095-.6-.038a1.94 1.94 0 0 1-1.003-.045c-.49-.145-.73-.525-1.048-.835-.099-.095-.12-.274-.165-.418a4.394 4.394 0 0 1-.133-.525c-.009-.05.064-.11.079-.17.03-.12.048-.243.07-.365l-.058-.03c-.054.045-.108.09-.163.138a1.075 1.075 0 0 1-.186-.757c-.173-.044-.213-.182-.253-.332-.063-.247-.146-.488-.22-.732-.01-.026-.017-.053-.025-.08-.087-.267-.179-.53-.256-.798-.058-.2-.095-.406-.145-.61a.39.39 0 0 0-.05-.129c-.108-.15-.098-.302.049-.44-.343-.102-.277-.43-.377-.665-.082-.192-.14-.393-.21-.588-.007-.02-.024-.037-.028-.057-.054-.245-.097-.493-.162-.735-.052-.192-.135-.377-.197-.568-.063-.191-.09-.399-.18-.577-.128-.254-.141-.52-.116-.783.027-.286.076-.575.233-.829.041-.065.052-.153.101-.207.068-.076.161-.13.282-.225.002-.146.128-.232.318-.308.258-.105.514-.19.789-.244.18-.036.343-.157.52-.22.134-.048.283-.091.404.118l.021-.213c.292-.103.567-.213.85-.294.235-.067.48-.092.719-.148.05-.012.1-.027.149-.043l.293-.1c.278-.084.56-.158.835-.25.186-.061.361-.15.544-.22a3.4 3.4 0 0 1 .4-.128c.218-.054.441-.09.66-.145a4.19 4.19 0 0 0 .555-.163c.291-.116.573-.256.9-.224.033-.043.064-.11.098-.111.072-.004.147.032.265.063a1.38 1.38 0 0 1 .79-.348c.194-.02.377-.144.568-.213.14-.05.286-.092.43-.13.193-.053.385-.124.581-.138.16-.012.263-.06.353-.26-.191-.003-.362-.025-.525 0-.16.024-.313.097-.47.149l-.049-.073c.065-.068.14-.2.196-.193.18.025.221-.129.326-.195.105-.066.21-.134.32-.189.162-.08.33-.153.495-.227a.383.383 0 0 1 .08-.028c.225-.05.456-.083.676-.151.324-.102.637-.236.96-.341.2-.065.41-.096.613-.154.24-.067.475-.148.714-.221.039-.012.08-.02.12-.03.197-.047.395-.089.59-.144.05-.014.089-.07.138-.112l.222.52-.521-.07a8.489 8.489 0 0 0-.046.16c-.17.002-.286.072-.248.27.195-.004.404.082.57-.097.015-.017.056-.007.082-.015.27-.082.538-.17.809-.244.21-.058.429-.09.639-.15.206-.057.405-.138.61-.203.075-.024.155-.033.24-.05 0 .308-.004.588.002.867 0 .053.036.105.055.158.026-.055.07-.108.077-.164.026-.19-.058-.387.096-.573.066-.079.023-.244.03-.392.204-.049.418-.088.625-.152.191-.06.372-.15.561-.217.165-.058.333-.107.503-.15.22-.054.443-.094.663-.149.117-.03.227-.1.344-.111.106-.01.217.038.338.063.032-.045.08-.14.155-.209.057-.053.143-.08.22-.107.234-.078.467-.156.704-.225.196-.057.395-.101.606-.154l.062.24c.078-.105.136-.201.212-.281a.31.31 0 0 1 .172-.087c.269-.031.504-.17.757-.233.277-.068.49-.252.78-.312.242-.051.48-.096.727-.11.007 0 .016 0 .02-.003.333-.266.458.033.633.22.051.054.14.073.21.107l.051-.043-.297-.449c.22-.11.395-.2.573-.285.043-.02.095-.015.143-.024.26-.052.523-.1.781-.16.057-.014.109-.068.155-.111.173-.16.397-.087.593-.133.227-.052.446-.134.694-.211l.225.194c.064.001.129-.238.217-.009.014.037.179.068.208.038.096-.097-.007-.12-.083-.164-.063-.035-.102-.112-.163-.183.236-.062.454-.11.667-.176.189-.06.372-.139.557-.21.006-.003.013-.008.019-.01.205-.051.412-.1.617-.154.216-.059.272.148.462.272-.015-.147-.027-.248-.042-.377l.442-.184v.532l.101.077.063-.19c.235.172.457.318.74.416.25.088.481.088.738.086l.138-.041-.011-.034c-.051-.114-.13-.18-.254-.172-.255.015-.445-.132-.664-.213-.08-.03-.184-.004-.33-.004l-.18-.48c.28-.115.504-.22.738-.299.202-.067.417-.095.622-.156.21-.064.414-.145.62-.219.015-.005.027-.013.04-.016.242-.046.485-.084.724-.14.155-.036.301-.099.453-.147.253-.079.535-.11.753-.244.234-.145.515-.05.737-.227.121-.096.317-.1.478-.148.265-.08.527-.163.792-.242.173-.05.35-.088.522-.145.211-.07.414-.161.626-.224.104-.032.223-.021.367-.032 0 .113-.005.209.003.304.002.032.038.061.059.092.025-.033.069-.067.07-.101.002-.126-.008-.252-.015-.398.227-.052.45-.089.662-.155.371-.114.762-.2 1.092-.387.2-.114.381-.092.57-.114.233-.027.427-.16.641-.21.24-.056.502-.022.753-.019.019 0 .035.065.06.116.114-.127.211-.212.351-.043.059.073.173.114.27.141.231.064.347.262.504.409.111.104.192.24.343.373.002-.124.048-.273-.005-.367a1.64 1.64 0 0 0-.392-.467c-.16-.13-.362-.213-.547-.31-.474-.249-.984-.121-1.478-.113-.178.002-.353.134-.53.203-.138.054-.273.117-.415.153-.238.058-.485.086-.721.15-.184.05-.36.134-.54.204-.007.002-.01.01-.017.012l-.733.155v-.268l-.001-.005-.005-.063c0-.124.078-.163.234-.18.167-.017.345-.082.435-.258l.21.173c.081-.166.022-.256-.073-.365-.388-.45-.759-.917-1.141-1.372-.069-.082-.177-.136-.237-.223-.094-.136-.163-.29-.26-.468-.305.048-.44-.28-.657-.455-.341-.275-.613-.63-.944-.92-.25-.218-.55-.381-.821-.576-.115-.081-.201-.208-.324-.27-.261-.13-.434-.368-.704-.496-.302-.144-.558-.382-.839-.573-.095-.064-.202-.111-.306-.164-.1-.05-.205-.093-.304-.145-.24-.124-.478-.25-.716-.378-.205-.111-.404-.236-.614-.339a2.704 2.704 0 0 0-.43-.156c-.134-.04-.19-.117-.184-.256.004-.084-.014-.167-.024-.251l-.078-.003-.054.388-.377-.242c-.017-.01-.039-.016-.059-.022-.3-.086-.612-.15-.901-.266a4.01 4.01 0 0 0-.838-.255c-.221-.037-.429-.146-.642-.222-.013-.005-.028-.006-.042-.008-.271-.048-.545-.083-.813-.144-.289-.066-.572-.155-.857-.234-.035-.009-.07-.02-.104-.024l-1.378-.13c-.026-.003-.05-.015-.023-.007.004-.138.009-.25.014-.363l-.184.25H24.65l-.055-.161-.03-.092c-.144.216-.321.268-.552.26a13.495 13.495 0 0 0-1.28.02c-.32.02-.637.077-.953.126-.063.01-.118.06-.208.11a29.504 29.504 0 0 0-.064-.372h-.066c-.014.115-.028.23-.045.356-.326.048-.652.082-.97.149-.087.018-.171.04-.256.064l-.504.155a.53.53 0 0 1-.168.019c-.252-.011-.466.096-.676.213a.376.376 0 0 1-.096.038c-.194.046-.391.081-.583.137-.065.019-.117.085-.19.142a67.752 67.752 0 0 0-.031-.17l-.014-.069-.02.102c-.088.273-.4.244-.589.355-.258.151-.548.251-.825.37-.043.019-.096.016-.15.024l-.092-.224a1.49 1.49 0 0 1-.052.005l-.028.29c-.272.147-.528.29-.79.424-.27.141-.554.262-.819.414-.245.14-.471.316-.714.464-.035.022-.108-.018-.207-.038l-.162.066v.189c-.184.123-.338.221-.487.327-.233.166-.464.333-.693.503a12.19 12.19 0 0 0-.346.266c-.097.077-.187.166-.29.233-.04.026-.144.034-.16.01-.12-.178-.303-.097-.458-.13-.066-.013-.128-.05-.217-.087l-.067.215c.153 0 .282-.022.398.007.104.025.193.106.29.164l-.028.065c-.107.02-.215.04-.323.058a1.4 1.4 0 0 1 .037.036c-.122.142-.241.287-.37.424-.066.07-.152.118-.22.185-.09.088-.087.091-.187.01-.01.009-.027.017-.029.027-.032.23-.168.388-.321.53l-.186.165-.089.085c-.26.264-.506.537-.746.82-.154.18-.335.335-.489.515-.106.125-.183.273-.279.408l-.65.905c-.092.131-.172.272-.265.404-.014.02-.06.016-.094.022-.16.264-.244.572-.49.789-.076.067-.1.19-.168.273-.087.106-.193.196-.301.303.089.084.082.18-.038.341-.146.196-.2.456-.302.685-.03.067-.091.12-.119.188-.093.22-.172.447-.267.668-.107.247-.23.486-.339.733-.06.14-.11.287-.153.433-.057.194-.052.427-.163.578-.146.196-.048.447-.23.634-.101.103-.09.314-.13.476-.08.318-.16.637-.237.956a.567.567 0 0 0-.018.169c.014.215-.104.372-.214.54-.027.04.019.127.036.215-.22.172-.035.44-.083.674-.034.162.006.339-.012.506-.027.237-.073.474-.12.71-.007.04-.057.07-.051.064l.093.727.18-.291.042.018c0-.357-.013-.715.006-1.072.011-.206.074-.409.12-.612.005-.023.065-.059.07-.055.062.054.145.104.17.174.028.073.003.168-.01.25-.031.21-.081.418-.1.629-.017.194-.004.39-.004.61.091-.015.167-.023.24-.041.095-.026.19-.06.283-.092.082-.029.161-.067.245-.09.077-.019.215-.057.23-.03.156.254.21-.008.27-.06.101-.086.378-.177.471-.105.084-.154.144-.125.201-.067l.057.063a.22.22 0 0 0 .058.049c.046.023.084.066.124.1-.009.033-.01.087-.03.095-.163.06-.331.11-.498.165-.216.073-.43.157-.65.215-.079.02-.172-.02-.258-.034-.07-.012-.14-.028-.21-.043l.064.201c-.018.006-.05.021-.084.028-.233.05-.469.086-.696.152-.18.054-.349.15-.527.215-.071.026-.156.012-.231.031-.075.02-.143.072-.217.082-.105.015-.214.004-.321.004l-.012-.032-.012-.03-.026.097-.03.108c-.247.048-.509.076-.755.152a1.75 1.75 0 0 0-.507.272c-.198.147-.408.301-.548.498-.144.203-.318.387-.373.67-.054.28-.118.55-.102.835.02.326.099.638.232.94.067.152.097.321.146.481l.087.267.032.135c.012.071-.036.153-.054.232-.016.063-.027.127-.05.232l.208-.13c.06.26.107.503.178.739.058.194.148.378.218.568.052.145.104.29.139.438.06.26.092.525.162.781.052.189.144.366.217.548.041.106.093.209.121.318.06.235.15.473.15.71.001.203.036.36.177.5.028.028.06.063.07.1.055.221.098.446.156.666.082.31.158.625.27.925.083.223.23.421.329.639.07.155.103.328.167.486.059.143.166.231.343.205.096.118.223.228.286.364.078.17-.022.308-.155.391-.14-.083-.277-.146-.39-.237-.167-.134-.343-.269-.466-.438-.16-.22-.246-.496-.412-.71-.153-.196-.084-.403-.125-.601-.014-.07-.069-.132-.1-.199-.084-.18-.184-.357-.243-.545-.071-.233-.113-.474-.158-.713-.013-.066.005-.137.009-.211l.296-.023-.203-.16c.011-.065.033-.139.036-.215.004-.137 0-.26-.206-.264-.077-.002-.169-.107-.221-.187a1.796 1.796 0 0 1-.204-.42c-.018-.057.04-.138.068-.223-.19-.013-.186-.171-.222-.332-.048-.218-.151-.424-.225-.636a5.464 5.464 0 0 1-.137-.457c-.056-.224-.042-.493-.168-.664-.154-.208-.022-.46-.21-.662-.121-.13-.097-.388-.157-.585-.057-.187-.14-.367-.212-.55a.407.407 0 0 1-.02-.06c-.05-.224-.096-.45-.154-.674-.022-.088-.093-.167-.106-.254-.044-.31.2-.481.328-.658-.029-.118-.054-.205-.072-.292-.028-.132.039-.3-.185-.342-.096-.018-.112-.332-.045-.445.122-.204.218-.427.363-.615.125-.163.29-.3.457-.425.136-.101.294-.174.45-.24.143-.061.298-.1.449-.14.217-.059.436-.111.658-.168.004-.006.016-.017.017-.029.047-.598.044-1.206.157-1.79.071-.371.038-.749.135-1.098.064-.225.071-.446.112-.666.073-.38.163-.758.256-1.134.076-.312.157-.623.256-.928.029-.088.129-.154.208-.245-.08-.098-.137-.19.009-.34.103-.106.099-.31.153-.468.064-.186.138-.37.21-.554l.169-.426c.136-.343.26-.691.41-1.027.036-.079.113-.14.184-.205l.085-.086c.043-.038.104-.084-.012-.131.056-.128.1-.263.172-.38.064-.105.156-.196.277-.04.023.029.09.024.137.035.078-.293.157-.338.439-.376.205-.028.403-.11.63-.177l-.15-.158-.44.092-.147-.249c-.05-.085-.136-.172-.136-.256.001-.09.093-.175.135-.266.094-.208.282-.348.366-.575.082-.223.288-.396.41-.608.142-.246.362-.428.491-.691.127-.257.366-.458.553-.686.287-.349.568-.701.859-1.048.068-.081.165-.137.24-.214.09-.092.164-.198.255-.29.307-.313.58-.677.94-.915.317-.21.532-.516.848-.72.247-.16.432-.415.684-.561.27-.155.502-.348.75-.527.113-.082.264-.12.404-.153.119-.029.193.02.258.087l.095.105a.386.386 0 0 0 .105.086c.137.07.266.154.4.232-.034-.046-.064-.095-.102-.137-.144-.158-.29-.313-.434-.469-.038-.04-.082-.075-.124-.113.069-.057.13-.149.207-.164.246-.051.378-.266.587-.363.103-.048.213-.08.334-.125.04.128.111.243-.034.383-.06.057-.03.205-.006.314.073-.195.21-.344.217-.573.004-.154.076-.42.362-.421.036-.001.07-.04.105-.062.212-.138.415-.293.681-.325.05-.005.09-.073.142-.097.202-.094.41-.178.612-.273.146-.069.284-.159.432-.222.148-.062.306-.1.457-.154.06-.022.114-.074.175-.083.097-.014.199-.004.34-.004l.045-.137c.218-.054.444-.107.666-.17.289-.08.578-.165.863-.26.188-.062.364-.16.552-.215.08-.023.18.023.314.046.103-.137.291-.187.52-.21.283-.032.556-.158.839-.213.2-.04.42.005.614-.049.347-.096.696-.113 1.051-.12.094-.002.183-.081.28-.097.054-.008.117.046.178.065.064.019.16.063.19.038.262-.22.563-.095.846-.116a.91.91 0 0 0 .3-.086c.079.076.162.121.263-.101zm20.297 22.56.141.23c-.116.011-.208.01-.295.03a7.488 7.488 0 0 0-.555.155c-.197.063-.385.153-.583.209-.223.062-.453.099-.678.148-.02.003-.032.026-.05.034-.079.036-.16.068-.248.107l-.024-.103-.026-.085-.027-.084-.026.08-.018.08c-.008.117-.03.205-.178.207-.112.002-.229.01-.334.044-.193.062-.377.156-.57.217-.193.06-.396.09-.59.146-.253.072-.498.163-.749.237-.173.052-.353.08-.523.137-.208.068-.405.164-.611.235-.267.09-.539.17-.81.25-.29.088-.58.182-.874.254-.089.022-.178.041-.268.058l-.542.099c-.029.004-.062.001-.082.016a1.053 1.053 0 0 1-.648.23.322.322 0 0 0-.122.028c-.179.07-.351.156-.534.208-.231.065-.47.101-.706.151-.02.005-.038.02-.056.029-.334.178-.54.118-.682-.19-.042-.092-.15-.156-.232-.23l.121.733-.06.05-.309-.149c.009.249-.157.265-.346.259-.047-.002-.093.025-.14.041-.204.069-.406.144-.612.204-.187.055-.383.084-.568.144-.21.066-.41.165-.623.227-.215.064-.44.098-.66.148-.04.008-.077.033-.117.047-.19.067-.379.148-.574.194-.26.06-.526.092-.79.137a.084.084 0 0 0-.038.016c-.197.19-.445.23-.706.257-.156.016-.306.09-.456.145-.182.067-.36.146-.544.207-.062.021-.154-.008-.112.109-.044.002-.118.015-.124.002a5.212 5.212 0 0 1-.147-.41c-.053-.17-.097-.339-.155-.505-.01-.032-.063-.07-.095-.069-.08.002-.22.009-.228.041a.842.842 0 0 0 .005.323c.012.076.061.147.077.225.05.242.093.486.138.73.003.012.005.033.015.037.201.1.087.256.089.387-.236.057-.458.1-.673.168-.188.06-.36.182-.55.216a4.42 4.42 0 0 0-.875.256c-.29.115-.597.185-.9.265-.204.054-.412.09-.617.135-.02.004-.042.009-.06.017-.205.076-.406.16-.613.23-.25.085-.503.156-.755.232-.168.051-.336.108-.507.152-.217.055-.437.099-.655.151-.023.006-.038.053-.059.055l-.228.032a.655.655 0 0 1-.22-.006c-.047-.011-.05-.211-.074-.325.158-.024.274-.026.38-.06.194-.063.38-.158.576-.212.223-.06.454-.092.682-.136.013-.002.026-.01.038-.016.162-.076.32-.165.489-.223.286-.097.576-.182.87-.259.225-.06.455-.098.682-.145.029-.007.068-.006.081-.023.13-.167.268-.091.41.004l.056-.207.779-.165c.013-.003.028-.005.04-.011.24-.13.494-.217.77-.235.206-.015.309-.141.294-.416-.165.057-.309.116-.458.156-.213.055-.43.097-.646.146a.067.067 0 0 0-.035.02c-.113.15-.216.116-.314-.036-.134.155-.263.273-.482.277-.164.004-.326.09-.489.14l-.753.226c-.17.05-.341.098-.51.152-.221.071-.44.15-.662.217l-.61.16c-.248.073-.488.198-.74.223-.246.025-.434.136-.622.234-.066-.183-.136-.361-.196-.545a.193.193 0 0 1 .011-.144c.058-.094.13-.178.2-.267l.124.101.052-.029-.128-.448.243-.083-.007-.044-.24-.042v-.478a5.504 5.504 0 0 1-.058-.048c-.06.05-.167.096-.174.152-.061.502-.105 1.007-.152 1.51-.007.07.005.141-.002.21-.019.182-.097.308-.304.315-.056.001-.115.002-.168.02-.243.074-.485.152-.727.231-.026.008-.052.017-.077.027l-.375.134-.049-.39-.071.003c-.004.092-.002.184-.015.276-.009.065-.023.164-.064.181a2.96 2.96 0 0 1-.46.144c-.223.055-.45.097-.674.153-.15.039-.297.089-.445.138-.223.072-.442.155-.665.221-.198.058-.401.094-.6.148-.141.04-.28.093-.418.144-.195.07-.383.16-.583.21-.252.063-.512.09-.768.134-.014.003-.03.005-.04.013-.18.185-.412.234-.657.25a.481.481 0 0 0-.103.025c-.22.074-.436.188-.661.21-.216.022-.346.162-.516.242-.029.013-.027.09-.049.171.158-.02.28-.023.393-.054.226-.063.446-.15.671-.215.2-.058.405-.094.604-.15.258-.074.514-.152.77-.238.19-.063.374-.144.564-.207.179-.059.361-.106.543-.15.096-.026.2-.02.293-.051.192-.064.376-.158.571-.215.22-.065.446-.102.67-.153.013-.003.025-.01.038-.015l.427-.15.216-.065c.23-.061.466-.093.698-.144.035-.008.06-.053.095-.073.037-.02.078-.032.12-.048l.064.23h.049l.065-.325c.131-.023.252-.031.365-.066.29-.089.564-.24.882-.219v.35l-.72.24-.087-.06c-.168.083-.305.17-.454.218-.214.067-.439.101-.657.157-.157.04-.314.085-.466.14-.178.065-.347.16-.529.214-.222.066-.454.104-.68.154-.027.005-.059.015-.077.033-.143.149-.258.106-.386-.113l-.13.346-.039.1-.074-.032a24.49 24.49 0 0 1-.175-.075c-.032.064-.128.183-.104.217.078.11.197.195.308.28.344.268.713.51 1.033.805.306.282.656.49 1 .712.175.112.373.19.553.294.215.126.424.266.668.42 0 .037.005.121-.002.204-.014.16-.233.282-.351.204-.117-.077-.233-.155-.356-.223-.264-.144-.537-.272-.796-.424-.17-.099-.307-.27-.485-.33-.277-.092-.454-.32-.669-.473-.251-.18-.57-.342-.723-.651-.006-.01-.024-.019-.037-.02-.212-.026-.309-.206-.43-.337-.201-.222-.395-.393-.735-.322-.227.047-.42.154-.63.23-.302.11-.619.184-.928.276l-.833.253c-.266.083-.53.174-.8.247-.22.06-.447.098-.67.146-.041.009-.084.014-.123.03-.185.068-.367.147-.554.21-.203.067-.412.12-.647.186.23.206.368.414.239.733-.168-.203-.34-.37-.458-.57-.09-.15-.144-.06-.253-.029l.49.661c.04.053.112.102.115.157.01.179.088.285.267.301l.019.4.01.213c.331-.06.554.088.764.334.253.297.566.543.847.818.148.143.281.298.44.47-.067.008-.109.007-.145.02-.046.015-.088.043-.13.067.037.022.072.05.112.064.166.063.333.124.513.19-.054.267.074.305.226.314l.116.005a.475.475 0 0 1 .16.028l.051.209.19.03c.054.083.086.19.145.208.149.047.22.147.295.268.043.067.124.15.194.156.334.028.36.037.475.353l.312.027.065.225.34.036c-.009.196.096.247.275.262.124.01.25.079.361.145.171.1.326.227.497.329.172.102.355.188.534.28.082.04.162.093.249.113.166.04.286.105.272.303-.004.062.017.125.027.188l.06.002.072-.264c.17.06.326.116.48.173l.239.088.115.051c.212.105.409.252.63.33.338.116.692.186 1.04.28.164.042.33.085.49.14.193.068.376.17.573.221.262.067.533.101.801.15.014.003.029.003.043.007.28.077.559.17.845.225.237.046.474.043.717.113.37.107.772.123 1.163.148.404.026.81.014 1.217.023.15.004.3.027.45.035.392.02.784.043 1.176.057.033 0 .067-.044.102-.066.134-.083.486-.037.591.079.051-.04.098-.106.152-.112.474-.052.948-.095 1.423-.135.126-.01.313.052.369-.01.17-.188.36-.086.538-.12l.203.612c.263-.159.277-.234.109-.429l.117-.298c.103-.01.22-.006.326-.035.248-.067.489-.16.736-.223.247-.062.499-.102.749-.152a.25.25 0 0 0 .04-.012c.205-.076.41-.148.612-.23.166-.069.33-.139.485-.225.161-.088.448.014.495.174.033.11.108.208.188.358.162-.325.005-.552-.064-.815.233.077.378-.3.603 0l.05-.23c.076-.015.154-.013.212-.045.284-.155.559-.325.845-.477.349-.187.706-.36 1.06-.541l.2-.097.093-.057c.21-.146.41-.305.616-.455.233-.17.47-.332.703-.503.103-.074.193-.167.297-.24.256-.183.52-.356.774-.54.175-.13.321-.29.503-.417.148-.102.281-.269.423-.407.429-.414.832-.854 1.237-1.292l.466-.49c.154-.164.303-.335.436-.523.27-.382.562-.757.87-1.11.191-.221.209-.622.666-.62l-.192-.15.357-.378c.042-.097.082-.216.14-.328.106-.201.19-.418.397-.548l.007-.018v-.147c.033-.236.248-.406.289-.645.02-.11.16-.201.248-.3v-.055c-.005-.112-.035-.224.089-.326.083-.068.104-.214.15-.325.08-.193.164-.384.237-.579.062-.164.11-.332.166-.499.013-.038.033-.073.047-.11.063-.175.133-.35.188-.528.054-.168.093-.342.152-.562.093.104.135.154.178.202l.051-.019c-.015-.065-.01-.145-.047-.195-.114-.155-.096-.292-.001-.448.111-.183.206-.377.297-.572.021-.045.012-.131-.019-.168-.151-.183-.132-.432.055-.554-.054-.409-.032-.565.227-.77-.153-.133-.153-.133 0-.255-.199-.189-.137-.47.15-.633-.045-.048-.124-.093-.124-.138a11.86 11.86 0 0 1 .025-1.013c.017-.227.077-.453.123-.706l-.287.027v.428c.002.136.002.273-.012.409-.022.224-.087.445-.108.67-.02.205-.004.413-.004.674-.16-.12-.27-.17-.268-.345.002-.169.104-.306.117-.447.038-.418.014-.842.014-1.287-.101.014-.184.018-.262.038-.09.024-.174.07-.264.095-.198.054-.4.092-.596.151-.218.069-.43.16-.647.225-.194.059-.396.096-.592.147-.15.04-.297.086-.445.133-.25.077-.5.158-.751.233-.174.053-.35.095-.524.146-.26.078-.518.16-.779.24-.167.05-.349.075-.499.156-.08.044-.111.182-.153.282-.02.05-.003.114-.019.166-.077.234-.165.464-.236.7-.026.085.001.187-.024.272-.073.25-.16.496-.243.743-.01.027-.017.053-.028.077-.072.155-.15.308-.216.466-.058.141-.09.293-.155.43-.113.24-.24.472-.36.707-.056.106-.11.216-.17.32-.07.122-.169.233-.213.363-.08.237-.15.29-.408.237.037.076.073.153.126.26l-.405.66c-.074-.063-.138-.107-.188-.162-.203-.225-.201-.313-.008-.57.058-.077.11-.158.19-.272h.184c-.115-.24.093-.416.156-.608.1-.305.33-.565.46-.863.162-.369.281-.759.417-1.138.05-.137.095-.275.141-.413.082-.235.16-.47.242-.707.027-.08.072-.16.083-.243.02-.155.022-.31.03-.467a5.226 5.226 0 0 0-.123-.018c-.044.142-.09.283-.136.423-.01.032-.016.066-.027.098-.073.22-.153.437-.22.658l-.15.563a3.222 3.222 0 0 1-.142.391c-.07.16-.16.312-.23.471-.06.136-.096.283-.16.416-.11.224-.217.453-.359.657-.098.14-.118.376-.365.378a.673.673 0 0 1 .101-.277c.173-.284.287-.6.424-.904.046-.102.095-.202.142-.304.117-.256.244-.508.345-.769.071-.182.103-.379.158-.568.04-.141.052-.312.141-.412.155-.17.077-.358.1-.537.005-.043-.054-.127-.093-.136-.058-.01-.127.03-.19.053l-.086.048c-.339.125-.676.257-1.02.371-.289.097-.58.212-.88.246-.298.033-.555.275-.876.157-.014-.005-.05.01-.054.022-.073.24-.152.006-.233-.012l-.059.22-.798.16c-.018.004-.036.02-.056.027-.12.032-.243.097-.357.082-.069-.008-.121-.14-.181-.217.071-.051.14-.111.219-.152.04-.02.1 0 .144-.016.207-.076.408-.175.621-.232.243-.067.497-.096.746-.143.014-.002.035-.001.04-.009.12-.205.244-.117.375.034.026-.11.046-.185.061-.247.257-.064.498-.113.734-.181.225-.066.442-.158.667-.225.194-.058.404-.076.589-.153.25-.103.492-.218.77-.222.034 0 .068-.019.1-.032l.368-.153.187-.065c.221-.066.45-.103.676-.154.028-.005.054-.02.08-.03.187-.07.372-.147.564-.204.137-.043.273-.026.42-.113.236-.14.529-.189.801-.264.216-.06.438-.099.656-.148.028-.006.054-.019.08-.028.213-.072.424-.152.64-.216.186-.056.38-.091.57-.144.157-.045.328-.074.463-.158.156-.096.28-.119.419.023a13.8 13.8 0 0 0 .065-.216c.193-.009.396.018.395-.144a33.58 33.58 0 0 1-.133-.214c-.04.047-.085.183-.2.01-.026-.04-.13-.028-.247-.05zM14.49 40.296c.191.08.35.134.498.21.116.06.217.154.333.215.24.13.483.257.73.372.222.101.455.177.677.277.123.055.233.137.348.207.017.01.034.025.053.03.195.05.394.092.585.152.114.035.219.098.37.168v.196c-.25.074-.438-.113-.657-.165-.194-.047-.377-.14-.563-.22-.152-.067-.298-.144-.447-.218-.099-.048-.196-.1-.295-.147-.262-.129-.524-.254-.784-.385-.25-.126-.49-.276-.748-.377-.18-.07-.08-.169-.1-.315zm21.54-.255v.23c-.23.147-.423.337-.653.403-.232.066-.407.2-.607.305-.215.114-.435.224-.658.323a4.355 4.355 0 0 1-.545.198c-.062.018-.14-.019-.21-.075l2.672-1.384zm-21.9.014c.023.043.126.043.221.07l.019.326-.054.041-.476-.379c.036-.018.081-.03.101-.06.068-.098.114-.138.189.002zm23.392-.857.032.084-.66.436c-.06.04-.113.087-.176.118-.092.048-.199.07-.283.127-.083.057-.146.144-.23.23-.084-.26-.049-.33.167-.46.245-.147.468-.328.72-.461.122-.065.286-.051.43-.074zm-26.747-1.725c.182.186.335.425.554.545.338.185.575.481.89.686.27.175.501.407.762.595.21.152.437.281.66.414.156.092.25.208.194.397-.275-.06-.467-.26-.692-.402a8.514 8.514 0 0 1-.754-.517c-.337-.264-.66-.55-.986-.828-.318-.269-.638-.535-.943-.817-.068-.063-.08-.185-.11-.258.13-.053.284.04.425.185zm27.879.578.186.203c-.133.133-.26.286-.495.127l.309-.33zm5.465-6.973c.013.25-.098.447-.236.649-.126.185-.19.41-.29.613-.084.173-.18.34-.274.508-.082.147-.158.297-.25.437-.132.203-.278.399-.411.602-.121.184-.224.379-.351.557-.168.237-.35.463-.53.69l-.004.1-.088.001c-.013.174-.204.254-.289.385-.135.21-.317.394-.49.579-.35.373-.701.745-1.063 1.107-.23.232-.477.448-.723.665-.056.049-.135.07-.204.104l-.074-.071.11-.21.069-.093c.372-.382.755-.753 1.135-1.13.235-.23.472-.46.702-.695.06-.062.087-.155.146-.217.065-.068.151-.12.276-.212.064-.252.12-.325.315-.316l.077.006a3.911 3.911 0 0 0-.106-.184 19.463 19.463 0 0 0 2.341-3.875h.212zM21.94 36.631c.025.02.065.025.099.028.571.048 1.144.09 1.715.14.498.046.996.103 1.509.155v.457c-.284-.032-.564.074-.84-.077-.136.099-.287.159-.444-.018-.018-.02-.09.008-.136.013-.081.01-.164.03-.245.025-.081-.004-.161-.03-.24-.052-.07-.021-.138-.052-.223-.085-.112.104-.417.11-.558.002a.266.266 0 0 0-.146-.047c-.192-.012-.385 0-.574-.025a2.8 2.8 0 0 1-.505-.128c-.034-.011-.059-.09-.064-.138-.009-.105-.003-.21-.003-.346.23.021.453-.065.655.096zm6.64-.216v.455l-1.001.236-.227-.3c-.02.122-.036.226-.054.353h-.208a35.96 35.96 0 0 1-.082-.284c-.04.075-.065.098-.063.12.022.267-.13.306-.358.295-.34-.014-.68-.003-1.012-.003a29.767 29.767 0 0 0-.174-.254c-.07-.099.02-.224.173-.229.362-.01.726-.006 1.087-.028.18-.012.354-.072.532-.11.18-.038.361-.077.544-.11.062-.012.129-.002.19-.015.144-.032.286-.077.431-.108.066-.015.138-.012.223-.018zm-9.033-.417.359.12c.146.049.29.105.44.143.257.069.517.124.788.188v.572c-.021.002-.044.003-.065.006l-.065-.266c-.041.031-.073.048-.098.073-.025.025-.043.056-.09.118l-.096-.363c-.077.273-.233.212-.379.19-.138-.022-.32.03-.335-.197l-.247.027-.365-.119.153-.492zm10.02.145.178.38c-.103.038-.227.088-.353.13-.135.046-.27.108-.41.122-.074.007-.2-.051-.225-.111-.055-.129-.046-.3.11-.355.228-.08.473-.114.7-.166zm-8.26-.062c.23.029.474.008.669.094.303.134.622.042.912.125.69.201 1.392.062 2.086.122.046.005.092.014.156.024-.103.156-.22.213-.393.2-.637-.047-1.275-.077-1.913-.129a7.198 7.198 0 0 1-.824-.124c-.228-.045-.45-.114-.693-.176v-.136zm6.553.096c-.238.194-1.35.39-1.557.298l.006-.03c.293-.047.553-.204.864-.176.165.015.338-.074.51-.11.043-.009.09.008.177.018zm9.536-5.86c.095.125.232.247.289.4.03.083-.071.219-.125.326-.034.068-.095.122-.136.188-.106.171-.246.28-.49.245.134.118.148.19.01.287-.087.061-.129.186-.205.305-.04.005-.109.011-.177.02l.043.043-.348.436-.23-.254c.005.077.007.155.014.23.014.154.014.277-.18.34-.09.029-.144.166-.216.253-.054.07-.114.195-.167.193-.22-.01-.312.15-.415.278-.18.224-.41.375-.646.529-.087.055-.126.232-.218.01-.068.053-.13.1-.202.158.027.046.055.095.073.129-.08.058-.149.119-.23.16-.027.015-.098-.01-.119-.04-.028-.04-.026-.1-.057-.154-.032.21-.07.401-.306.484-.183.063-.3.268-.524.247.006-.03.009-.063.023-.09.05-.101.024-.195-.058-.248l-.001.06h-.1l-.001-.027v.026a.815.815 0 0 0 .01.183c.009.04.073.067.116.096-.078.067-.147.149-.233.196-.21.114-.43.203-.64.313-.121.065-.231.15-.362.236-.053-.06-.113-.132-.18-.197-.019-.018-.06-.014-.091-.02-.006.032-.016.065-.015.097.002.056.029.117.014.166-.036.12-.087.157-.168.017-.036-.063-.115-.103-.228-.147.02.104.043.207.07.337-.335.106-.693.22-1.051.331l-.019-.06-.174-.35c.203-.055.396-.092.578-.16.122-.045.226-.138.342-.206a.263.263 0 0 1 .098-.03c.275-.033.481-.207.711-.336.128-.07.272-.111.4-.18.198-.108.386-.237.586-.341.067-.035.157-.028.237-.038l.01-.005c.07-.08.13-.172.213-.234.228-.167.468-.32.704-.477.22-.148.448-.286.664-.442.154-.111.295-.243.44-.368.141-.122.284-.243.422-.368.21-.195.416-.396.627-.59.033-.03.09-.032.135-.049.105-.136.209-.274.314-.409.24-.31.48-.618.723-.925.079-.1.164-.197.243-.297.064-.081.123-.167.203-.277zm-7.42 5.23c-.074.167-.18.209-.338.235-.19.03-.363.159-.553.204-.307.071-.622.108-.936.155-.017.003-.04-.028-.074-.055.036-.023.056-.045.078-.05.248-.05.503-.076.743-.15.302-.094.592-.227.889-.336.052-.02.117-.003.191-.003zm-11.232-.335c.116.06.233.122.356.164.171.058.351.09.521.15.177.06.343.149.519.21.172.062.352.103.525.16.128.043.252.097.378.145a7.408 7.408 0 0 1-.022.085c-.064.004-.134.024-.194.007-.28-.077-.562-.148-.833-.25-.264-.1-.512-.242-.773-.353-.145-.061-.302-.094-.45-.146a3.575 3.575 0 0 1-.43-.178.72.72 0 0 1-.09-.054l-.167-.128c.26-.078.451.083.66.188zm14.866-1.451-.32.234c-.162.117-.315.248-.488.347-.264.15-.542.273-.81.418-.202.108-.386.254-.596.343a1.476 1.476 0 0 1-.2.066l-.417.092c.012-.037.014-.091.037-.101.222-.1.459-.17.672-.287.334-.18.65-.393.978-.586.18-.107.368-.196.55-.299.098-.053.184-.13.287-.168.096-.037.203-.043.307-.059zm-16.55.562c.176.108.363.196.533.31.172.112.427.128.477.384a2.411 2.411 0 0 1-.767-.37c-.171-.116-.376-.181-.55-.29-.084-.053-.137-.154-.202-.235.206-.027.35.103.51.2zM6.03 33.816c-.036.284.073.54.132.808.04-.006.101-.001.11-.021a8.61 8.61 0 0 0 .264-.596c.025-.063.02-.14.016-.21 0-.023-.038-.061-.061-.063-.021-.003-.059.03-.07.055-.06.15-.116.303-.174.455l-.057.003c-.011-.098-.037-.197-.032-.294.007-.106.042-.21.065-.314-.166-.039-.179.062-.193.177zm4.617-.583h-.063c-.32.04-.64.085-.96.132-.039.007-.07.049-.109.06-.215.068-.43.133-.646.198l-.064-.241c-.077.135-.265.28-.445.371-.031.017-.038.082-.056.125l-.058-.049-.075-.217h-.052l-.062.238-1.375.442c.086.229.184.264.375.136a.348.348 0 0 1 .132-.048c.255-.048.511-.093.766-.14.034-.007.065-.027.097-.041.14-.066.276-.148.424-.193.217-.066.443-.1.663-.156.15-.037.298-.08.443-.134.184-.068.36-.156.547-.218.208-.07.424-.118.636-.176.006-.002.005-.027.012-.072l-.065-.009-.065-.008zm4.617-.204c.33.23.652.469.963.72.122.099.208.24.309.363-.085-.02-.163.008-.259-.086-.242-.245-.539-.435-.813-.649-.237-.184-.474-.367-.707-.556-.017-.013-.006-.062-.005-.096.263-.055.35.19.512.304zm19.098.08c-.037.058-.066.126-.116.167-.203.163-.415.318-.623.475-.052-.126-.05-.215.113-.28.14-.057.247-.188.378-.27.074-.046.164-.064.248-.092zm1.336-1.279.052.082c-.217.223-.43.451-.655.668a5.8 5.8 0 0 1-.474.412c-.069.053-.162.073-.247.107.047-.08.08-.174.145-.235.328-.315.666-.624 1.004-.931.049-.044.116-.069.175-.103zm-26.295-.603-.106.029-.095.1c-.07.07-.139.142-.188.225-.035.059.001.172.032.25.018.042.092.062.142.093l.122-.226.097.255.048-.005.113-.618-.165-.103zm-5.045.577c.248.125.263-.144.39-.19.135-.05.122-.161.128-.263l-.19-.144c-.178.15-.37.292-.328.597zm32.815-1.747c0 .068.028.158-.006.201-.215.28-.443.55-.671.822-.152.18-.305.362-.468.532-.051.054-.134.077-.203.114l-.038-.07.283-.312.135-.16c.21-.267.406-.545.612-.815.082-.108.17-.21.262-.309.015-.016.062-.003.094-.003zm-17.44.63v.387c-.11-.068-.195-.269-.273-.089-.173-.017-.325-.034-.478-.05.04-.174.19-.091.292-.118.086-.024.22.084.246-.102.002-.017.127-.018.213-.028zm25.93-4.328c-.04.24.068.476-.118.673-.01.009-.008.026-.01.04-.048.258-.083.519-.147.77-.055.214-.146.418-.213.627-.06.188-.129.375-.16.568-.022.144-.037.263-.138.274-.04.126-.063.213-.092.298-.045.13-.097.258-.144.388-.093.254-.155.526-.287.76-.06.101-.047.292-.232.313a4.14 4.14 0 0 1-.068-.129c-.019-.037-.058-.081-.05-.11a1.99 1.99 0 0 1 .127-.32c.067-.132.153-.255.217-.388.057-.12.101-.246.14-.374.054-.17.088-.345.147-.512.06-.172.142-.339.213-.508.01-.026.018-.052.026-.08.083-.283.177-.563.246-.849.065-.276.098-.558.159-.835.041-.188.105-.372.168-.59.038-.004.111-.01.217-.016zm-27.22 2.43c.012.081-.003.176.038.225.16.193.138.375.018.574-.027.045.004.132.024.193.052.152.238.103.31.174.136.131.256.091.391.079l.035-.067-.352-.22a2.78 2.78 0 0 1-.049.041c-.005-.137.038-.313-.03-.405-.098-.13-.093-.251-.088-.383.006-.205-.095-.253-.297-.212zm19.256.375c.007.169.038.344-.132.463-.034.023-.08.03-.12.045.027.187-.036.279-.316.22l.314-.236c-.016-.217.087-.37.254-.492zm-17.125-.996c-.015.105-.031.196-.038.287-.001.02.028.042.047.061.148.14.301.28.051.467-.003.002.008.023.016.047l.239.019.045.162.026.099.037-.114c.073-.303-.028-.583-.31-.905l-.113-.123zm13.266-1.72.029.378c-.281.1-.54.2-.805.282-.201.062-.412.09-.615.15-.22.065-.435.151-.653.226-.146.05-.292.102-.442.138-.213.052-.431.078-.64.138-.207.058-.405.145-.607.217-.152.054-.304.113-.46.153-.222.056-.453.087-.672.152-.189.057-.365.153-.55.223a3.706 3.706 0 0 1-.41.12c-.245.058-.49.118-.74.16-.16.026-.233-.065-.22-.223.01-.103.016-.205.025-.308.143.14.27.172.474.056.182-.104.423-.1.632-.164.204-.062.395-.16.6-.221a5.47 5.47 0 0 1 .676-.155c.072-.012.155.035.251.06.01-.04.023-.106.033-.154.25-.09.487-.184.73-.263.183-.06.373-.096.558-.152.263-.079.525-.164.787-.247a.118.118 0 0 1 .042-.007c.285.011.513-.15.766-.24.21-.074.436-.098.653-.153.176-.045.348-.103.558-.167zm-1.976-1.49c-.024.043-.068.086-.068.13.003.296-.057.61.213.836l.154-.424c-.17-.062-.243-.21-.225-.418a.069.069 0 0 0-.012-.04l-.062-.083zm1.88-.459c.077.166.18.322.29.468.105.139.121.244-.009.38-.046.049-.026.16-.036.24l.136-.087c.017-.011.038-.02.051-.034.245-.258.315-.425.027-.743-.13-.143-.25-.287-.207-.512-.25-.018-.344.09-.252.288zm-.99-.04c-.02.03-.06.068-.055.094a.444.444 0 0 0 .078.166c.048.067.133.115.16.187.068.181.113.37.168.559h.497c-.003-.034.003-.075-.014-.095-.25-.289-.504-.574-.758-.858-.02-.024-.052-.036-.077-.053zm13.742-2.93-.052.018-.042.248h.272l.027.093.023.036c.178.153.363.298.576.47.002 0 .101-.047.124-.024.1.104.136.014.2-.037.094-.073.198-.132.298-.198.01.015.022.029.033.044l.12-.27-.723.21-.046-.148c-.19-.067-.344-.125-.501-.177-.039-.013-.083-.005-.124-.006l-.185-.26zm-3.827.186.006.01-.363.085c.007.033.008.084.024.09.167.056.127.164.093.272l-.407.03c.114.094.172.163.247.198.05.022.166.014.177-.013.088-.214.16-.434.234-.654.002-.005-.004-.013-.008-.017zm.794-.408-.572.167.074.101.145.2.353-.173v-.295zM12.729 19.51c-.015.055-.042.11-.043.167a6.843 6.843 0 0 0-.003.135V20.148l-.863.963.574-.17c.04-.05.08-.101.128-.144.257-.231.366-.54.462-.843l.2.051a1.58 1.58 0 0 0 .055-.054c-.043-.07-.072-.154-.13-.205-.075-.065-.174-.1-.261-.152-.042-.024-.08-.056-.119-.084zm4.472-9.796.103.006c.198.028.404.005.606.005l.026.082c-.176.098-.353.193-.528.294-.162.094-.322.19-.48.293-.238.156-.478.311-.71.477-.236.168-.468.34-.693.523-.186.152-.362.317-.538.482-.294.274-.591.545-.874.83-.155.157-.255.386-.433.5-.243.155-.397.394-.53.602-.185.286-.462.492-.608.813-.138.304-.386.557-.58.837-.059.083-.103.18-.145.274-.098.216-.183.438-.288.652-.104.213-.234.415-.338.629-.066.137-.101.289-.158.431-.077.194-.174.38-.238.577-.073.226-.12.46-.183.707l-.22.047c.118.135.179.231.03.39-.073.076-.012.275-.012.465.228-.196.345-.393.366-.643.002-.036-.006-.076.009-.105a.303.303 0 0 1 .095-.12c.023-.015.102.01.109.03.017.056.035.152.006.176-.144.117-.088.246-.066.36.163-.027.314-.051.468-.078l-.171.514c-.292.038-.634.079-.975.133-.062.01-.114.077-.175.11-.23.126-.451.25-.733.273-.213.018-.418.143-.627.22-.02.007-.042.006-.062.012l-.76.241c-.019.006-.042.003-.063.007-.247.051-.513.062-.734.168a.958.958 0 0 1-.55.096c.029-.33.279-.525.684-.518a.347.347 0 0 0 .267-.093c.096-.082.247-.102.374-.148.213-.077.424-.155.638-.227a8.82 8.82 0 0 1 .849-.233c.121-.026.243-.046.4-.075.04-.21.082-.437.132-.66a4.39 4.39 0 0 1 .128-.466.76.76 0 0 1 .14-.225c-.028-.052-.078-.161.053-.277.022-.02.03-.058.042-.09.082-.206.165-.412.241-.62.057-.157.092-.322.158-.474.106-.242.228-.476.347-.712.094-.186.178-.38.293-.552.214-.327.345-.697.605-1.006.168-.199.357-.412.44-.69.028-.099.202-.156.332-.248l-.04-.06-.018-.025c.168-.226.32-.45.493-.656.169-.201.354-.389.54-.575.235-.233.474-.463.719-.685.226-.205.464-.397.696-.595.115-.097.222-.202.343-.29.227-.165.463-.319.694-.478.199-.137.397-.276.594-.415.132-.093.26-.179.414-.207l.096-.01zm30.072 3.552-.062.001c-.011.02-.022.03-.024.044-.091.424.22.742.318 1.117.049.186.058.313-.064.47l.24.044c.018.124.02.239.054.344.063.195.16.38.217.576.061.214.092.435.136.653.004.02.019.036.024.056.018.061.033.123.05.185-.011.048.04.073.055.112.135.346.286.691.255 1.076-.011.139.003.247.157.305.042.016.094.107.081.141-.054.148-.132.286-.21.447.04.036.11.1.18.166.034-.085.07-.17.13-.313.03.165.027.28.07.374.139.307.246.619.237.961-.003.14-.002.282-.003.423-.003.261.106.351.403.293l-.149-.457.223-.055c.02-.02.037-.042.058-.06-.322.018-.257-.18-.28-.343a5.54 5.54 0 0 0-.141-.655c-.075-.276-.167-.549-.25-.823-.009-.026-.014-.054-.023-.08-.074-.206-.157-.408-.22-.616-.05-.163.032-.334-.114-.508-.14-.169-.196-.417-.259-.639-.07-.247-.104-.505-.155-.757-.011-.054-.017-.11-.038-.159-.064-.143-.152-.276-.198-.423-.067-.215-.1-.439-.157-.657a5.457 5.457 0 0 0-.136-.443c-.073-.207-.169-.406-.224-.617-.025-.099-.065-.152-.128-.173l-.053-.01zM15.52 18.46c-.27.06-.52.103-.763.173-.21.06-.415.144-.616.231a5.109 5.109 0 0 0-.478.25c-.031.018-.043.069-.065.103.037.013.078.042.11.035.248-.052.494-.103.737-.169.232-.063.456-.155.69-.21.16-.037.366-.196.385-.413zm.507.027c-.193.063-.5.396-.502.556 0 .027.045.069.074.075.208.044.157-.144.2-.236l.228-.038v-.357zm-9.109-6.083c-.023.041-.061.08-.068.125-.04.25-.342.366-.322.654.007.098-.08.203-.126.303-.13.284-.259.568-.392.85-.114.244-.246.48-.348.729-.078.192-.123.397-.186.606-.025.001-.06-.002-.096.005-.037.01-.07.03-.106.045.019.03.037.062.055.093.018.032.056.072.048.097-.062.186-.143.366-.201.553-.069.223-.118.451-.18.676-.07.257-.153.511-.216.77-.03.122-.028.252-.037.378-.014.2-.126.302-.393.313l.09-.265c.012-.032.037-.061.042-.094l.09-.567.058-.28c.056-.238.153-.467.229-.7.047-.147.092-.293.133-.441.051-.182.083-.37.149-.548.102-.277.228-.547.34-.82.057-.143.1-.29.16-.43.07-.162.154-.317.226-.478.058-.127.103-.258.16-.385.037-.082.092-.155.13-.237.09-.19.163-.386.262-.57.077-.14.172-.275.283-.392.032-.034.142.005.216.01zm4.9 4.327c-.084.167-.171.333-.252.502a2.76 2.76 0 0 0-.127.315 7.482 7.482 0 0 0-.158.51c-.032.123-.087.185-.198.156.028-.148.04-.286.083-.415.054-.162.135-.314.202-.47.06-.14.112-.283.179-.42.053-.107.09-.257.271-.178zm6.982.253c.063.095.127.168.167.252.048.102.028.191-.104.22-.225.047-.45.093-.674.146-.177.042-.395.045-.517.153-.174.154-.421.033-.57.21-.022.026-.105.003-.201.003l.199-.485c.592-.082 1.155-.333 1.7-.499zm10.295-2.764c.057.02.108.057.162.088-.027.031-.05.08-.081.088-.221.053-.45.084-.668.148-.066.019-.13.041-.195.066l-.382.155c-.013.005-.024.015-.037.018l-.814.151-.042-.312-.08.086-.142.155.11.132c-.18.066-.352.124-.52.191-.172.07-.339.147-.508.22-.013.006-.025.014-.038.016-.248.045-.5.078-.742.139-.225.056-.441.144-.662.218a.958.958 0 0 1-.08.024c-.327.09-.665.15-.977.277-.29.117-.582.189-.885.256-.341.076-.664.233-.996.352a.19.19 0 0 1-.063.007c-.318-.017-.587.13-.87.24-.2.079-.424.094-.633.153-.222.063-.44.142-.67.218-.08-.06-.188-.13-.282-.215-.023-.02-.015-.12.005-.13.108-.052.223-.087.337-.125.222-.075.445-.148.667-.221.026-.009.05-.02.077-.027.254-.082.505-.178.764-.239.123-.03.26.008.414.015l.007-.03.018-.072c.294-.107.563-.216.839-.3.221-.066.455-.088.677-.152.196-.057.382-.148.574-.217.14-.05.282-.095.426-.132.233-.058.47-.098.7-.161.185-.052.363-.13.543-.195.147-.053.294-.11.445-.152.196-.056.399-.094.595-.151.243-.07.481-.154.722-.23l.462-.14c.13-.04.266-.13.386-.113.257.039.444-.135.674-.166.089-.012.17-.078.258-.109.212-.07.336.123.505.176zM12.32 15.705c-.05.133-.096.268-.155.396-.087.189-.182.373-.277.557-.014.028-.046.048-.07.072l-.099-.211c.07-.14.133-.288.216-.425.088-.143.193-.276.296-.41.009-.009.056.012.09.021zm.744-1.296c.093.217-.099.34-.18.491-.135.252-.297.49-.453.727a.106.106 0 0 1-.03.028l-.076.044c-.096-.215.054-.363.151-.523.118-.193.234-.388.365-.572.056-.077.148-.13.223-.195zm18.25.644c-.08.162 0 .239.09.297l.535-.158-.028-.102-.596-.037zm-15.78-3.155c-.336.33-.674.66-1.007.994-.262.26-.526.519-.772.794-.188.209-.345.445-.525.663-.03.036-.103.036-.16.051.037-.281.28-.427.44-.62.353-.423.733-.825 1.11-1.225.21-.223.43-.436.662-.635.052-.045.165-.019.252-.022zm10.857-4.433c.405.052.81.074 1.214.11.248.024.496.068.738.124.242.056.479.143.717.215.02.006.041.011.062.015.256.05.52.074.766.155.205.069.388.204.6.318.063-.094.134-.045.281-.002a.534.534 0 0 1 .137.066l.131.085c.09.053.185.088.307.045.046-.017.127.074.195.108.222.111.446.217.667.328.1.05.197.108.297.158.295.142.6.266.883.427.218.124.407.297.616.437.167.112.35.201.519.31.119.077.231.165.339.256.186.157.365.323.549.482l.429.355.2.191c.14.15.288.115.428.077.178-.049.34-.155.518-.211.202-.064.416-.09.618-.15.217-.066.424-.154.637-.228.038-.014.087.005.125-.008.09-.028.175-.09.266-.096.179-.015.338-.137.537-.071.13.043.28.025.42.033l.017-.06-.104-.14c.025-.02.04-.04.057-.043.275-.049.553-.085.824-.148.134-.031.274-.087.38-.17.133-.102.235-.086.336-.008l.047.041c-.105.07-.214.136-.341.213l.254.124c-.052.027-.072.043-.096.047-.232.049-.47.08-.697.148-.188.056-.362.158-.547.226-.041.014-.105-.033-.115-.037-.18.066-.34.13-.502.182-.259.086-.52.166-.78.244-.176.051-.354.088-.528.144-.207.066-.412.145-.618.22-.006.002-.01.009-.017.01-.332.088-.66.207-.998.253a2.02 2.02 0 0 0-.794.259c-.125.074-.28.118-.425.129-.08.006-.168-.083-.273-.14l-.055.22-.847.292a.23.23 0 0 1-.083.017 1.185 1.185 0 0 0-.474.106l-.3.13c-.185.077-.397.093-.593.152-.223.067-.441.15-.663.223a.483.483 0 0 1-.168.027c-.24-.01-.435.106-.632.216a.296.296 0 0 1-.08.028l-.677.149c-.027.006-.055.012-.079.026-.2.122-.199.122-.37-.04 0 .26-.174.248-.33.268l-.056.009-.013-.13a.892.892 0 0 1-.001-.253c.01-.054.124-.098.199-.126.245-.09.49-.18.74-.252.211-.06.432-.087.644-.148a3.41 3.41 0 0 0 .202-.067l.4-.151c.019-.007.038-.018.059-.021.218-.047.442-.081.656-.144.192-.056.375-.144.56-.219.02-.007.039-.015.06-.02.385-.091.782-.15 1.148-.29.166-.064.25.092.382.034.065-.028.137-.038.207-.056l-.136-.178c.086-.01.16-.009.228-.029.13-.037.257-.082.38-.134.013-.005.01-.099-.014-.122-.187-.175-.382-.34-.569-.515-.024-.022-.02-.073-.027-.113.22-.056.301.13.43.24.208.175.426.337.66.522.047-.119.136-.18-.023-.274-.143-.086-.234-.251-.363-.365a5.275 5.275 0 0 0-.48-.378c-.312-.22-.632-.429-.944-.648-.16-.114-.306-.247-.467-.36-.083-.058-.187-.087-.276-.14-.093-.053-.178-.119-.246-.166-.225-.115-.429-.23-.643-.323-.24-.106-.49-.187-.733-.29-.138-.059-.263-.147-.4-.208a3.695 3.695 0 0 0-.417-.145c-.186-.056-.374-.105-.571-.159l-.041-.28c-.18.256-.354.192-.532.073-.01-.007-.026-.008-.04-.01-.302-.051-.604-.094-.903-.154-.335-.068-.666-.157-1.001-.223-.138-.028-.283-.023-.426-.026-.738-.016-1.467-.19-2.209-.112-.088.008-.171.052-.258.06-.283.021-.566.033-.881.051l.137-.22c-.225-.089-.271.044-.306.216-.11-.12-.195-.09-.276-.04l-.099.062a.223.223 0 0 1-.104.033c-.072.002-.145.061-.207.09-.05-.11-.088-.18-.116-.255-.029-.072-.05-.149-.082-.25l1.297-.18.007.112.014.21.468-.19c-.006-.184.114-.215.286-.212.591.01 1.19-.047 1.771.027zm20.45 4.41c-.018.064-.051.116-.043.161.043.22.085.444.153.658.022.068.124.109.184.159.09-.203-.037-.658-.293-.979zM10.208 7.68c.166.294-.054.438-.2.607-.173.202-.35.399-.525.598-.32.367-.649.728-.956 1.105-.169.206-.301.443-.456.662-.14.2-.295.392-.432.596-.129.193-.242.396-.369.604l-.294.14c-.105-.137.014-.206.08-.3.135-.196.25-.408.387-.604.241-.344.497-.678.74-1.02.19-.265.358-.547.561-.802.161-.203.367-.372.544-.563.082-.09.136-.205.219-.294.227-.245.463-.483.701-.73zm6.77 3.053.083.04c-.023.029-.04.064-.07.083-.129.088-.268.161-.39.257-.246.195-.479.407-.727.6-.098.076-.22.12-.333.179-.051-.129-.02-.208.118-.275.131-.063.238-.172.359-.257.243-.172.487-.34.73-.51.064-.044.127-.092.197-.12.01-.003.02-.001.034.003zm15.044-.9c.168-.008.296.106.436.184.213.117.43.225.639.348.203.118.403.243.593.38.216.155.423.324.628.493.028.025.03.085.042.13a.38.38 0 0 1-.279-.104c-.244-.205-.534-.356-.8-.538-.16-.11-.308-.244-.47-.353-.096-.063-.21-.095-.314-.146a13.147 13.147 0 0 1-.542-.273c-.02-.012-.016-.069-.02-.107l.087-.015zm-12.54-.353-.001.063c-.322.143-.652.273-.965.433-.285.145-.552.324-.829.482-.028.016-.076-.006-.115-.01.021-.067.02-.174.064-.197.29-.15.592-.275.884-.421.214-.107.413-.247.63-.343.094-.042.22-.007.332-.007zm21.702-.332c.186.258.41.487.617.731a.042.042 0 0 1 .009.022l.003.055c-.221.087-.371-.005-.495-.19-.103-.153-.23-.292-.332-.447-.037-.056-.064-.189-.041-.203.07-.045.148-.094.24.032zm-14.879-.915c.314.072.619.057.925.092.34.04.69.048 1.007.156.177.06.347.062.515.105.227.057.444.149.665.222.15.049.3.093.452.134.194.052.395.088.585.154.16.055.305.15.462.215.247.1.499.186.745.287.116.047.244.093.266.243-.25.01-.46-.085-.657-.233-.088-.064-.201-.097-.306-.134-.158-.055-.34-.067-.475-.155-.296-.194-.662-.166-.963-.34-.143-.083-.322-.107-.489-.14-.278-.056-.575-.06-.836-.158-.302-.113-.633-.031-.904-.14-.429-.17-.855-.047-1.276-.108-.142-.02-.282-.067-.424-.082a.441.441 0 0 0-.216.043c-.222.098-.359.04-.362-.184.43 0 .878-.07 1.286.023zm-7.826.724c.117.018.303 0 .337.062.084.154.063.333-.134.425l-.332-.187.402-.106-.29-.106.017-.088zm3.828-1.14c.116-.004.196.222.108.321a.555.555 0 0 1-.283.167c-.294.061-.609.053-.885.152-.291.105-.59.17-.882.261-.271.084-.522.231-.781.35-.094.042-.189.09-.288.114a.196.196 0 0 1-.162-.048c-.058-.064-.089-.15-.131-.228l.108-.062.052-.012c.174.015.216-.089.223-.183.34-.252.734-.2 1.048-.421.163-.116.415-.103.624-.156.208-.052.409-.125.617-.168.208-.045.42-.08.632-.088zm-.6.879c.048-.007.103.04.148.11l-.947.145c.008-.038.011-.098.027-.102.256-.057.513-.11.772-.153zm3.145-.517c.051.19.007.263-.161.257-.19-.008-.379-.002-.57-.002.039-.196.155-.24.264-.147.168-.04.315-.073.467-.108zm-8.466-4.684c.033.207-.06.312-.232.381-.226.092-.434.225-.65.34-.086.046-.167.11-.258.134-.269.07-.466.256-.693.394-.153.092-.317.167-.465.264-.307.202-.608.414-.91.622-.246.168-.476.368-.74.495-.192.09-.316.199-.439.368-.127.175-.352.278-.523.426-.32.276-.632.562-.948.842-.027.024-.066.034-.098.051-.015-.03-.033-.057-.043-.087-.051-.169.049-.29.158-.384.308-.272.629-.53.944-.794.134-.112.245-.235.432-.297.147-.05.242-.236.376-.34.23-.18.472-.345.712-.514.289-.204.575-.414.873-.605.173-.11.37-.182.55-.283.2-.114.386-.256.592-.361.29-.15.595-.273.892-.412.153-.073.301-.154.47-.24zm18.738.678c.09.03.167.1.25.15.205.12.41.236.65.374l.04.157c.312.018.533.19.76.378.206.173.468.278.686.437.288.209.558.442.835.664l.502.403c-.211.109-.416.08-.61-.086-.189-.162-.363-.345-.563-.494-.302-.225-.623-.424-.93-.642-.209-.146-.397-.323-.613-.456-.26-.16-.54-.29-.81-.433-.254-.134-.512-.262-.76-.406-.049-.028-.062-.114-.094-.18.273-.13.453.067.657.134zm-6.13-2.158c.209.031.406.02.562.093.2.095.45.034.612.22.01.013.038.015.059.018.264.044.53.075.788.136.193.046.376.13.564.197.165.057.327.119.493.17.178.056.364.09.538.157.139.053.262.149.398.211.129.058.267.09.396.145.166.073.323.161.487.234.062.028.136.03.217.045l.014.277c-.239-.08-.44-.14-.635-.215-.176-.066-.343-.151-.517-.223-.121-.051-.248-.088-.368-.14-.162-.07-.317-.153-.479-.223a2.915 2.915 0 0 0-.36-.127c-.198-.055-.403-.09-.599-.15-.193-.061-.38-.145-.569-.218a.475.475 0 0 0-.061-.017c-.249-.046-.496-.089-.743-.138-.208-.041-.427-.06-.615-.145-.09-.04-.262-.146-.182-.307zm-7.595-.047.02.236c-.302.048-.592.08-.873.144-.24.055-.472.148-.707.223-.034.01-.07.009-.104.018-.27.078-.54.16-.81.237-.174.05-.353.087-.525.145-.2.067-.393.15-.59.226-.04.015-.081.032-.121.031-.289-.007-.517.141-.753.275-.106.059-.223.098-.377.164v-.24c.32-.145.623-.287.93-.418a3.22 3.22 0 0 1 .42-.141c.197-.054.4-.087.594-.15.182-.06.353-.147.53-.22.013-.007.028-.007.042-.01l.468-.096.232-.056c.235-.062.46-.164.697-.216.296-.066.6-.1.927-.152zm7.457.013v.278c-.208-.051-.393-.106-.582-.139a2.203 2.203 0 0 0-.444-.03c-.16.005-.292-.021-.368-.21.482-.165.925.082 1.394.1zm-3.986-.38 1.669.124c-.122.188-.25.247-.436.234-.262-.02-.527-.009-.79-.018-.075-.002-.148-.034-.224-.045-.102-.014-.22-.157-.303.04-.006.013-.158-.034-.23-.05-.111.021-.218.055-.324.058-.448.014-.897.004-1.344.031-.375.023-.747.086-1.123.127-.063.007-.128-.006-.192-.009l-.019-.076c.15-.057.296-.145.451-.165.784-.1 1.57-.18 2.363-.159.02 0 .041-.004.062-.012l.124-.057.013.047.222-.047c.028-.006.055-.024.081-.022z" fill="#02BC7D"/>
        <g fill="#F8F7F7">
            <path d="M8.797 28.338a1.47 1.47 0 0 0 .793-.551c.204-.275.302-.577.294-.907l1.177-.174c.075.59-.074 1.137-.448 1.64-.374.504-.889.85-1.546 1.038a3.011 3.011 0 0 1-1.156.109 2.709 2.709 0 0 1-1.033-.317 2.666 2.666 0 0 1-.82-.71 3.039 3.039 0 0 1-.52-1.041 3.039 3.039 0 0 1-.11-1.16c.04-.38.145-.725.318-1.035.173-.31.409-.582.709-.817.3-.234.645-.408 1.037-.52a2.913 2.913 0 0 1 1.265-.087c.416.065.787.215 1.114.45.326.236.575.536.746.901l-1.103.457a1.41 1.41 0 0 0-.723-.638 1.449 1.449 0 0 0-.973-.053c-.457.131-.786.398-.986.8-.2.4-.228.852-.084 1.355.144.5.407.867.79 1.103.385.235.804.287 1.26.157zM13.153 23.866c.61-.175 1.158-.133 1.643.127.484.26.811.685.98 1.277.17.589.117 1.122-.158 1.6-.274.477-.715.803-1.323.977-.606.174-1.151.13-1.638-.13-.486-.26-.813-.685-.981-1.271-.17-.592-.117-1.126.157-1.604.275-.477.715-.803 1.32-.976zm.87 3.03a.939.939 0 0 0 .61-.49c.125-.247.143-.522.056-.824-.087-.303-.248-.526-.483-.67a.939.939 0 0 0-.78-.092.935.935 0 0 0-.607.49c-.124.247-.142.521-.055.824.086.303.247.526.483.669a.935.935 0 0 0 .775.094zM16.01 23.203l1.053-.302.144.5c.074-.238.198-.443.371-.617.174-.175.38-.296.62-.365.413-.118.79-.07 1.128.143.34.214.574.544.701.99l.662 2.306-1.081.31-.608-2.12c-.065-.227-.18-.394-.343-.5a.658.658 0 0 0-.562-.067.765.765 0 0 0-.482.386.824.824 0 0 0-.058.641l.595 2.077-1.08.31-1.06-3.692zM21.815 21.111l.113.395.828-.237.236.823-.827.237.822 2.87-1.084.31-.823-2.869-.517.149-.236-.824.517-.148-.132-.461c-.116-.404-.1-.76.048-1.068.148-.308.4-.513.757-.615.244-.07.496-.1.755-.09l.255.886c-.146.007-.27.025-.374.054a.481.481 0 0 0-.303.224.457.457 0 0 0-.035.364zM23.54 21.043l1.081-.31 1.06 3.693-1.081.31-1.06-3.693zm.8-.945a.642.642 0 0 1-.401.302.642.642 0 0 1-.5-.044.613.613 0 0 1-.302-.39.603.603 0 0 1 .051-.484.645.645 0 0 1 .402-.3.645.645 0 0 1 .5.041c.15.08.25.208.3.384a.613.613 0 0 1-.05.491zM25.642 20.44l1.039-.297.135.472c.055-.217.155-.405.3-.564.144-.16.316-.268.516-.325a1.27 1.27 0 0 1 .466-.035l.275.961a1.548 1.548 0 0 0-.642.043.726.726 0 0 0-.49.425c-.094.216-.101.464-.021.743l.562 1.96-1.08.31-1.06-3.692zM30.873 22.937l-1.081.31-1.059-3.692 1.039-.298.126.44c.062-.219.173-.406.334-.563.16-.156.354-.267.579-.331.265-.076.52-.086.767-.03.246.057.45.172.611.347.062-.236.189-.446.38-.63a1.59 1.59 0 0 1 .67-.384c.419-.12.8-.076 1.147.132.347.208.584.534.711.977l.665 2.32-1.08.31-.604-2.105a.838.838 0 0 0-.348-.495.686.686 0 0 0-.562-.086.671.671 0 0 0-.444.364.845.845 0 0 0-.033.615l.604 2.105-1.081.31-.604-2.105c-.067-.235-.18-.406-.341-.514a.623.623 0 0 0-.544-.074.647.647 0 0 0-.433.354c-.083.178-.09.384-.023.618l.604 2.105zM36.94 18.824l1.82-.521a.971.971 0 0 0-.471-.498.922.922 0 0 0-.682-.052.869.869 0 0 0-.526.389c-.117.192-.164.42-.142.682zm-1.018.639c-.165-.578-.11-1.104.165-1.579.275-.475.71-.798 1.307-.969.591-.17 1.123-.123 1.596.139.472.261.792.685.96 1.269.046.162.073.271.079.328l-2.896.823c.122.247.29.423.503.53.213.106.44.125.682.056a.99.99 0 0 0 .49-.307.817.817 0 0 0 .207-.491l1.015-.143c.014.387-.12.748-.402 1.083a2.189 2.189 0 0 1-1.1.696c-.596.171-1.137.123-1.622-.144-.486-.267-.813-.698-.984-1.291zM43.09 16.65a.946.946 0 0 0-.777-.09.952.952 0 0 0-.612.488 1.06 1.06 0 0 0-.064.807c.084.295.246.512.483.65a.96.96 0 0 0 .775.086.949.949 0 0 0 .612-.486c.126-.243.146-.511.062-.805a1.064 1.064 0 0 0-.48-.65zm-1.634 2.807c-.432-.277-.733-.708-.9-1.293-.168-.584-.14-1.11.081-1.575.222-.467.59-.773 1.1-.92a1.575 1.575 0 0 1 1.388.242l-.603-2.105 1.08-.31 1.535 5.351-1.067.306-.128-.447c-.094.23-.231.427-.412.59-.18.164-.397.282-.65.355-.515.147-.989.083-1.424-.194z"/>
        </g>
    </g>
</svg>
