<svg width="16" height="16" viewBox="0 0 16 16" xmlns="http://www.w3.org/2000/svg">
    <g fill-rule="nonzero" fill="none">
        <path d="M15.397 6.609H8.87a.52.52 0 0 0-.52.52v2.087c0 .288.232.521.52.521h3.676a4.9 4.9 0 0 1-2.11 2.474l1.566 2.713C14.513 13.472 16 10.92 16 8.065c0-.408-.03-.699-.09-1.024a.527.527 0 0 0-.513-.432z" fill="#167EE6"/>
        <path d="M8 12.869a4.868 4.868 0 0 1-4.21-2.436l-2.714 1.562a7.987 7.987 0 0 0 10.926 2.933v-.004l-1.566-2.713A4.827 4.827 0 0 1 8 12.869z" fill="#12B347"/>
        <path d="M11.998 14.928v-.004l-1.565-2.713A4.84 4.84 0 0 1 8 12.869V16c1.453 0 2.82-.39 3.998-1.072z" fill="#0F993E"/>
        <path d="M3.131 8c0-.887.244-1.716.658-2.433L1.076 4.005A7.901 7.901 0 0 0 0 8c0 1.456.39 2.82 1.076 3.995l2.713-1.562A4.805 4.805 0 0 1 3.131 8z" fill="#FFD500"/>
        <path d="M8 3.131c1.172 0 2.251.418 3.09 1.11a.52.52 0 0 0 .7-.03l1.476-1.477a.525.525 0 0 0-.03-.767A7.95 7.95 0 0 0 8 0a7.987 7.987 0 0 0-6.924 4.005l2.713 1.562A4.868 4.868 0 0 1 8 3.131z" fill="#FF4B26"/>
        <path d="M11.09 4.242a.52.52 0 0 0 .7-.031l1.476-1.477a.525.525 0 0 0-.03-.767A7.95 7.95 0 0 0 8 0v3.131c1.172 0 2.251.415 3.09 1.11z" fill="#D93F21"/>
    </g>
</svg>
