<svg width="16" height="21" viewBox="0 0 16 21" xmlns="http://www.w3.org/2000/svg">
    <path d="M8 0c3.333 0 6 2.625 6 5.906v2.625c1.133 0 2 .853 2 1.969v8.531C16 20.147 15.133 21 14 21H2c-1.133 0-2-.853-2-1.969V10.5c0-1.116.867-1.969 2-1.969V5.906C2 2.625 4.667 0 8 0zm6 9.844H2c-.4 0-.667.262-.667.656v8.531c0 .394.267.657.667.657h12c.4 0 .667-.263.667-.657V10.5c0-.394-.267-.656-.667-.656zm-6 1.969c1.133 0 2 .853 2 1.968 0 .853-.533 1.575-1.333 1.838v1.444c0 .393-.267.656-.667.656s-.667-.263-.667-.657V15.62A1.914 1.914 0 0 1 6 13.78c0-1.115.867-1.969 2-1.969zm0 1.312c-.4 0-.667.262-.667.656s.267.656.667.656.667-.262.667-.656-.267-.656-.667-.656zM8 1.312c-2.6 0-4.667 2.035-4.667 4.594v2.625h9.334V5.906c0-2.56-2.067-4.593-4.667-4.593z" fill="#5C6066" fill-rule="nonzero"/>
</svg>
