<svg xmlns="http://www.w3.org/2000/svg" version="1.1" xmlns:xlink="http://www.w3.org/1999/xlink" xmlns:svgjs="http://svgjs.com/svgjs" width="512" height="512" x="0" y="0" viewBox="0 0 32 32" style="enable-background:new 0 0 512 512" xml:space="preserve"><g><path d="M20 25H6.072c.127-.5.406-1.063.695-1.353l.88-.88C8.418 21.997 9 20.591 9 19.5V14a1 1 0 0 0-2 0v5.5c0 .558-.373 1.458-.767 1.853l-.88.88C4.582 23.003 4 24.409 4 25.5v.5a1 1 0 0 0 1 1h8v1c0 1.654 1.346 3 3 3s3-1.346 3-3v-1h1a1 1 0 0 0 0-2zm-3 3c0 .551-.449 1-1 1s-1-.449-1-1v-1h2zm13.707 1.293-2.833-2.833A.976.976 0 0 0 28 26v-.5c0-1.091-.582-2.496-1.353-3.267l-.88-.88C25.373 20.958 25 20.058 25 19.5V12c0-4.624-3.507-8.441-8-8.94V2a1 1 0 0 0-2 0v1.073a8.996 8.996 0 0 0-6.519 3.994L2.707 1.293a1 1 0 1 0-1.414 1.414l28 28a.997.997 0 0 0 1.414 0 1 1 0 0 0 0-1.414zM16 5c3.86 0 7 3.14 7 7v7.5c0 1.091.582 2.496 1.353 3.267l.88.88c.136.136.267.334.384.556L9.942 8.528A6.992 6.992 0 0 1 16 5z" fill="#d5d5d5" data-original="#000000"></path></g></svg>