<svg xmlns="http://www.w3.org/2000/svg" version="1.1" xmlns:xlink="http://www.w3.org/1999/xlink" xmlns:svgjs="http://svgjs.com/svgjs" width="512" height="512" x="0" y="0" viewBox="0 0 32 32" style="enable-background:new 0 0 512 512" xml:space="preserve" class=""><g><path d="M16 2.023c-.742 0-1.483.199-2.139.6-3.803 2.5-7.609 5.007-11.412 7.511a1 1 0 0 0-.449.834v16.01c0 1.644 1.355 3 3 3h22c1.645 0 3-1.356 3-3v-16.01a1 1 0 0 0-.45-.834c-3.803-2.502-7.608-5.013-11.411-7.512-.656-.4-1.397-.6-2.139-.6zm0 1.998c.378 0 .757.102 1.094.306l10.2 6.715-10.167 9.237c-.714.629-1.54.629-2.254 0L4.656 11.077l10.25-6.75A2.104 2.104 0 0 1 16 4.021zm12 9.084v13.873c0 .571-.429 1-1 1H5c-.571 0-1-.429-1-1V13.177c3.183 2.867 6.368 5.734 9.549 8.602a3.707 3.707 0 0 0 4.902 0c3.182-2.892 6.366-5.783 9.549-8.674z" fill="#5c6066" data-original="#000000" class=""></path></g></svg>