<svg width="24" height="14" viewBox="0 0 24 14" xmlns="http://www.w3.org/2000/svg">
    <path d="M6.649 0A4.511 4.511 0 0 0 2.15 4.5c0 1.488.732 2.813 1.85 3.633C2.026 9.114.653 11.148.653 13.5h1.5c0-2.493 2.005-4.5 4.497-4.5a4.489 4.489 0 0 1 4.497 4.5h1.5c0-2.493 2.005-4.5 4.497-4.5a4.489 4.489 0 0 1 4.497 4.5h1.5c0-2.352-1.374-4.386-3.35-5.367A4.505 4.505 0 0 0 21.64 4.5c0-2.476-2.023-4.5-4.497-4.5a4.511 4.511 0 0 0-4.498 4.5c0 1.488.732 2.813 1.85 3.633a6.045 6.045 0 0 0-2.6 2.46 6.045 6.045 0 0 0-2.6-2.46A4.505 4.505 0 0 0 11.146 4.5c0-2.476-2.023-4.5-4.497-4.5zm0 1.5a2.986 2.986 0 0 1 2.998 3c0 1.667-1.332 3-2.998 3a2.986 2.986 0 0 1-2.999-3c0-1.667 1.333-3 2.999-3zm10.494 0a2.986 2.986 0 0 1 2.998 3c0 1.667-1.332 3-2.998 3a2.986 2.986 0 0 1-2.999-3c0-1.667 1.332-3 2.999-3z" fill="#5C6066" fill-rule="nonzero"/>
</svg>
