<svg xmlns="http://www.w3.org/2000/svg" version="1.1" xmlns:xlink="http://www.w3.org/1999/xlink" xmlns:svgjs="http://svgjs.com/svgjs" width="512" height="512" x="0" y="0" viewBox="0 0 1.707 1.707" style="enable-background:new 0 0 512 512" xml:space="preserve" class=""><g><path d="M1.687 1.54H.574a.02.02 0 0 1-.02-.02V.187A.02.02 0 0 1 .589.174L1.7 1.505a.02.02 0 0 1-.013.035zM.594 1.5h1.05L.594.242z" fill="#5c6066" data-original="#000000"></path><path d="M1.256 1.339H.775a.02.02 0 0 1-.02-.02V.742A.02.02 0 0 1 .79.729l.482.577a.02.02 0 0 1-.016.033zm-.461-.04h.419L.794.797zM.677.57H.574C.547.57.547.53.574.53h.103c.026 0 .026.04 0 .04zM.638.666C.597.666.554.675.554.646c0-.028.043-.02.084-.02.026 0 .026.04 0 .04zM.677.763H.574c-.027 0-.027-.04 0-.04h.103c.026 0 .026.04 0 .04zM.638.86C.597.86.554.866.554.84c0-.03.043-.02.084-.02.026 0 .026.04 0 .04zM.677.956H.574c-.027 0-.027-.04 0-.04h.103c.026 0 .026.04 0 .04zM.638 1.052c-.041 0-.084.008-.084-.02s.043-.02.084-.02c.026 0 .026.04 0 .04zM.677 1.148H.574c-.027 0-.027-.04 0-.04h.103c.026 0 .026.04 0 .04zM.638 1.245c-.041 0-.084.008-.084-.02s.043-.02.084-.02c.026 0 .026.04 0 .04zM.677 1.341H.574c-.027 0-.027-.04 0-.04h.103c.026 0 .026.04 0 .04zM.638 1.438c-.041 0-.084.008-.084-.02 0-.029.043-.02.084-.02.026 0 .026.04 0 .04zM.406 1.54H.02A.02.02 0 0 1 0 1.52V.187a.02.02 0 0 1 .02-.02h.386a.02.02 0 0 1 .02.02V1.52a.02.02 0 0 1-.02.02zM.04 1.5h.346V.207H.04z" fill="#5c6066" data-original="#000000"></path><path d="M.182 1.405H.02c-.026 0-.026-.04 0-.04h.162c.026 0 .026.04 0 .04zM.121 1.29H.02c-.026 0-.026-.04 0-.04h.101c.027 0 .027.04 0 .04zM.182 1.176H.02c-.026 0-.026-.04 0-.04h.162c.026 0 .026.04 0 .04zM.121 1.062H.02c-.026 0-.026-.04 0-.04h.101c.027 0 .027.04 0 .04zM.182.947H.02c-.026 0-.026-.04 0-.04h.162c.026 0 .026.04 0 .04zM.121.833H.02c-.026 0-.026-.04 0-.04h.101c.027 0 .027.04 0 .04zM.182.718H.02c-.026 0-.026-.04 0-.04h.162c.026 0 .026.04 0 .04zM.121.604H.02c-.026 0-.026-.04 0-.04h.101c.027 0 .027.04 0 .04zM.182.49H.02c-.026 0-.026-.04 0-.04h.162c.026 0 .026.04 0 .04zM.213.389c-.1 0-.1-.153 0-.153s.1.153 0 .153zm0-.113C.165.276.165.35.213.35S.26.276.213.276zM.768 1.54a.02.02 0 0 1-.02-.02v-.103c0-.026.04-.026.04 0v.103a.02.02 0 0 1-.02.02zM.864 1.54c-.028 0-.02-.043-.02-.085 0-.026.04-.026.04 0 0 .042.008.085-.02.085zM.96 1.54a.02.02 0 0 1-.02-.02v-.103c0-.026.04-.026.04 0v.103a.02.02 0 0 1-.02.02zM1.057 1.54c-.028 0-.02-.043-.02-.085 0-.026.04-.026.04 0 0 .042.008.085-.02.085zM1.154 1.54a.02.02 0 0 1-.02-.02v-.103c0-.026.04-.026.04 0v.103a.02.02 0 0 1-.02.02zM1.25 1.54c-.028 0-.02-.043-.02-.085 0-.026.04-.026.04 0 0 .042.008.085-.02.085zM1.346 1.54a.02.02 0 0 1-.02-.02v-.103c0-.026.04-.026.04 0v.103a.02.02 0 0 1-.02.02z" fill="#5c6066" data-original="#000000"></path></g></svg>