<svg xmlns="http://www.w3.org/2000/svg" version="1.1" xmlns:xlink="http://www.w3.org/1999/xlink" xmlns:svgjs="http://svgjs.com/svgjs" width="512" height="512" x="0" y="0" viewBox="0 0 48 48" style="enable-background:new 0 0 512 512" xml:space="preserve"><g><path d="M38 46c4.18 0 7-2.94 7.83-8.08a5 5 0 0 0-1-3.77l-.16-.15-6.07-4.8a5 5 0 0 0-6.29.24l-2.62 2.48C24.23 30.68 16.39 23.6 16 18.38l2.59-2.73a5 5 0 0 0 .19-6.27L14 3.33a.73.73 0 0 0-.18-.17 5 5 0 0 0-3.76-1C4.94 3 2 5.82 2 10a36 36 0 0 0 36 36ZM10.38 4.15a3.11 3.11 0 0 1 .43 0 3 3 0 0 1 1.72.55l4.67 5.9a3 3 0 0 1-.09 3.72l-2.84 3A1 1 0 0 0 14 18c0 6.44 9.29 14.9 15.84 16a1 1 0 0 0 .85-.26l3-2.81a3 3 0 0 1 3.73-.13l5.95 4.68a2.92 2.92 0 0 1 .52 2.15C43.4 40.53 42 44 38 44A34 34 0 0 1 4 10c0-4 3.47-5.4 6.38-5.85Z" fill="#5c6066" data-original="#000000"></path></g></svg>